<svg id="Layer_1" xmlns="http://www.w3.org/2000/svg" viewBox="0 0 1898.2 1748"><style>.st0{fill:#FFFFFF;} .st1{fill:#FF6C0C;} .st2{fill:none;stroke:#FF6C0C;stroke-width:13.5;stroke-miterlimit:10;} .st3{fill:none;stroke:#FFFFFF;stroke-width:13.5;stroke-miterlimit:10;}</style><path d="M1751.6 956.1c-44.8 448.7-444.8 776.2-893.5 731.4-448.7-44.8-776.2-444.8-731.4-893.5 44.8-448.7 444.8-776.2 893.5-731.4 448.7 44.7 776.2 444.8 731.4 893.5"/><path d="M940.1 1699.8c-27.5 0-55.4-1.4-82.9-4.1-110.8-11.1-216.1-43.5-313-96.4-93.6-51.1-175.5-119-243.3-201.9-67.8-82.9-118.3-176.6-149.8-278.4-32.7-105.5-43.7-215.1-32.6-325.9 20.4-204.8 115.9-393.4 268.8-531C539.1 125.4 734.8 50.2 938.2 50.2c27.5 0 55.4 1.4 82.9 4.1 110.8 11.1 216.1 43.5 313 96.4 93.6 51.1 175.5 119 243.3 201.9 67.8 82.9 118.3 176.6 149.8 278.4 32.7 105.5 43.7 215.1 32.6 325.9-20.4 204.8-115.9 393.4-268.8 531-151.8 136.7-347.5 211.9-550.9 211.9M938.2 66.7c-199.3 0-391 73.8-539.9 207.7C248.5 409.2 155 594 134.9 794.7c-10.8 108.6-.1 216 32 319.3 30.9 99.8 80.4 191.6 146.8 272.8 66.5 81.2 146.7 147.8 238.4 197.9 95 51.8 198.2 83.6 306.7 94.4 27 2.7 54.3 4.1 81.2 4.1 199.3 0 391-73.8 539.8-207.7 149.8-134.8 243.4-319.6 263.4-520.3 10.8-108.6.1-216-32-319.3-30.9-99.8-80.4-191.6-146.8-272.8-66.5-81.2-146.7-147.8-238.4-197.9-95-51.8-198.2-83.6-306.7-94.4-26.9-2.7-54.2-4.1-81.1-4.1"/><path class="st0" d="M610 1451.4c-3.4 5.2-7.9 9-13.7 11.5-5.8 2.4-11.9 3.8-18.5 4.2-6.6.4-13.1-.1-19.7-1.4-6.6-1.3-12.3-3-17.3-5.1-.9.7-2 1.8-3.3 3.2-1.3 1.4-2.5 2.9-3.8 4.4-1.3 1.6-2.5 3.1-3.7 4.6-1.2 1.5-2.1 2.8-2.7 3.8-.7 1.1-1.3 2.2-1.9 3.2-.5 1-1.1 1.9-1.8 2.6-.7.7-1.5 1.2-2.5 1.5-1 .3-2.3.4-3.9.2-1.3-.2-2.4-.6-3.3-1.2-1.3-.9-1.9-1.9-1.7-3.2.2-1.2.7-2.4 1.4-3.5 4.1-6.3 8.1-12.3 12-17.8 3.9-5.6 8-10.9 12.3-16 4.2-5.1 8.7-10.1 13.4-15 4.7-4.9 9.8-9.9 15.4-15 .8-.7 1.8-1.6 3-2.7s2.4-2.1 3.8-3.2c1.4-1 2.7-1.9 4.1-2.6 1.3-.7 2.5-1 3.5-.9.7 0 1.4.1 2 .4.6.3 1.3.6 1.9 1 1.5 1 2.6 2.1 3.2 3.4.6 1.3.4 2.8-.7 4.4-.5.8-1.3 1.8-2.4 2.9-1 1.1-2.2 2.1-3.4 3.2-1.2 1.1-2.4 2.1-3.6 3-1.2 1-2.2 1.8-3.1 2.6-5.6 5-10.9 10.2-16 15.7s-10 11.2-14.6 17.1c4.1 1.4 8.7 2.7 14 3.8 5.2 1.1 10.4 1.6 15.6 1.4 5.1-.1 10-1.1 14.6-2.9 4.6-1.8 8.3-4.9 11.1-9.2 2.5-3.9 3.8-8.1 3.9-12.7.1-4.6-.5-9.1-2-13.5-1.5-4.5-3.6-8.6-6.3-12.5-2.7-3.9-5.8-7.2-9.1-9.8-.5-.4-1.2-1-2.2-1.7-1-.7-2-1.5-2.9-2.4-.9-.9-1.6-1.8-2.1-2.7-.5-.9-.5-1.8.1-2.6.3-.5.9-1.1 1.8-1.7 1.7-1.2 3-1.7 4-1.6.9.1 2.2.7 3.9 1.8 4.5 2.9 8.7 6.7 12.7 11.5s7.2 10.1 9.5 15.8c2.4 5.7 3.6 11.5 3.8 17.4 0 5.7-1.5 11.2-4.8 16.3M587.5 1519.6c-.9-2.5-1.3-5.4-1.2-8.5.1-3.2.6-6.5 1.6-10s2.1-6.9 3.4-10.3c1.3-3.3 2.6-6.4 4-9.2 1.3-2.8 2.4-5.1 3.3-6.7 4.9-9.3 10.5-18.1 16.9-26.3 6.3-8.3 13.6-15.7 21.9-22.3 1.6-1.2 3.5-2.6 5.9-4.2 2.4-1.6 5-2.9 7.7-4.2 2.7-1.2 5.4-2 8.1-2.4 2.7-.4 5-.1 6.9.9 1.6.8 2.7 1.9 3.3 3.2.6 1.3.9 2.7.8 4.2-.1 1.5-.3 3-.8 4.6-.5 1.6-1.1 3-1.7 4.2-2.2 4.2-5.1 8.4-8.6 12.8-3.6 4.4-7.4 8.5-11.6 12.6-4.2 4-8.5 7.8-12.8 11.4-4.4 3.6-8.6 6.6-12.5 9.2-1.9 1.3-3.9 2.4-5.8 3.5-2 1-4 2.2-6 3.4-.6.3-1.4.7-2.2 1.2-.9.5-1.5.9-2.1 1.5-.6.6-1.3 1.4-2 2.6-.7 1.2-1.2 2.2-1.7 3-.7 1.3-1.6 3.2-2.7 5.6-1.1 2.4-1.9 5-2.5 7.6-.6 2.6-.8 5.1-.6 7.3.2 2.2 1.2 3.9 3 4.8 1.6.8 3.6 1.2 6.1 1 2.5-.2 5.1-.7 7.7-1.5 2.6-.8 5.2-1.8 7.6-2.8s4.4-2 6-2.8c1.1-.6 2.1-1.2 3.2-1.8 1-.6 2.1-1.3 3.2-1.8.6-.3 1.2-.6 1.8-.7.6-.1 1.2 0 1.9.3.7.4 1.1.9 1.1 1.5s-.2 1.3-.5 1.9c-.5.9-1.1 1.6-2 2.2-.9.6-1.7 1.1-2.5 1.6-2.5 1.4-5.4 3-8.9 4.8-3.5 1.8-7.1 3.2-10.9 4.4-3.8 1.2-7.5 1.9-11.2 2.2-3.7.3-6.9-.3-9.6-1.8-2.4-1.8-4.1-3.7-5-6.2m70.3-96.5c-2.1.9-4.1 2.1-6.1 3.7-2 1.5-3.9 3.2-5.7 5-1.8 1.8-3.1 3.1-4.1 4-5.1 5.1-10.3 10.7-15.5 16.9-5.2 6.1-9.5 12.4-12.9 18.7-.4.7-.7 1.4-1.1 2-.3.5-.6 1.2-.9 1.9 4-2.5 8.6-5.5 13.6-9.1 5-3.5 9.9-7.4 14.6-11.5 4.7-4.1 9.1-8.4 13.2-12.8 4-4.4 7.2-8.8 9.5-13 .1-.3.4-.7.6-1.2.3-.6.6-1.2.7-1.8.2-.6.2-1.2.1-1.7s-.3-1-.9-1.2c-1.3-.8-3-.7-5.1.1"/><path class="st0" d="M607.5 1594.4c-1.1-1.5-1.8-3.1-2.1-4.9-.3-1.8-.3-3.6 0-5.6.4-2 .9-3.9 1.7-5.7 2-4.6 5.1-8.6 9.5-12.1s9.2-6.4 14.6-8.9c5.3-2.5 10.8-4.5 16.5-6.1 5.6-1.6 10.8-2.8 15.3-3.6.6-1.3 1.2-2.5 1.8-3.8.6-1.4 1.2-2.7 1.7-4 3-7.1 5.9-14.3 8.7-21.6-1.9 1.5-4.9 3.2-8.9 5.3-4 2.1-8.2 4-12.6 5.7-4.5 1.8-8.7 3.1-12.9 4-4.1.9-7.4.9-9.7-.1-1.6-.7-2.7-1.6-3.4-2.7-.7-1.1-1.1-2.3-1.2-3.6-.1-1.3 0-2.6.4-4.1.4-1.4.8-2.7 1.3-3.9 1.8-4.1 4-8.1 6.8-12 2.8-3.8 5.7-7.4 8.6-10.9.7-.8 1.3-1.6 1.9-2.4.6-.8 1.3-1.5 2.1-2.1 1-.9 2.1-1.5 3.3-1.9 1.1-.4 2.4-.3 3.7.3 1.6.7 2.7 1.8 3.4 3.4.7 1.6.8 3.2.1 4.8-.5 1.2-1.5 2.4-2.9 3.7-1.4 1.3-2.6 2.4-3.5 3.3-1 1-2.2 2.3-3.7 4-1.5 1.6-3 3.4-4.5 5.3s-2.9 3.7-4.1 5.4c-1.2 1.8-2.1 3.3-2.7 4.6-.2.5-.4 1.1-.6 1.9-.2.8 0 1.3.8 1.6.6.2 1.4.2 2.6 0 1.2-.3 2.5-.6 3.8-1 1.3-.4 2.6-.9 3.8-1.3 1.2-.5 2.1-.8 2.6-1 5.4-2.3 10.6-4.8 15.7-7.8 5-2.9 10.1-5.8 15.2-8.6l3.2-1.6c1.2-.6 2.3-.6 3.4-.2.9.4 1.7 1.1 2.4 2.1.4.6.4 1.7.1 3.3-.3 1.6-.7 3.3-1.3 5-.6 1.7-1.2 3.4-1.9 4.9-.7 1.6-1.2 2.7-1.5 3.5-2.6 6.1-5.4 12.3-8.4 18.7-3 6.4-6.4 12.6-10.1 18.6-3.7 6-7.8 11.6-12.3 16.9-4.5 5.3-9.6 9.8-15.2 13.6-1.9 1.3-3.9 2.4-6.2 3.5-2.2 1.1-4.5 1.9-6.8 2.4s-4.6.8-7 .8c-2.4 0-4.7-.5-6.9-1.5-1.9-.9-3.5-2.1-4.6-3.6m39.3-37.4c-4.7 1.5-9.2 3.3-13.6 5.5s-8.5 4.8-12.1 7.8c-3.6 3-6.3 6.6-8 10.6-.4.8-.7 1.8-1 2.9-.3 1.1-.4 2.2-.4 3.3 0 1.1.3 2 .7 2.9.4.9 1.2 1.6 2.3 2 1.1.5 2.3.7 3.6.6 1.3-.1 2.6-.4 3.9-.8 1.3-.4 2.6-.9 3.8-1.5l3.4-1.7c2.9-1.6 5.7-3.8 8.7-6.7 2.9-2.8 5.7-5.9 8.4-9.3 2.7-3.3 5.2-6.7 7.5-10.1 2.3-3.4 4.3-6.6 5.9-9.5-4.1 1.2-8.5 2.5-13.1 4M732.3 1572.6c-.2-2-.1-4.5.3-7.5s.9-6.2 1.7-9.6c.7-3.4 1.5-6.8 2.4-9.9.9-3.2 1.6-6 2.3-8.4.7-2.5 1.2-4.3 1.4-5.2.1-.5.3-1.1.4-1.9.1-.8-.2-1.3-1-1.5-1-.3-2.5.3-4.7 1.6s-4.6 3.1-7.4 5.4c-2.7 2.3-5.6 4.8-8.6 7.6s-5.8 5.6-8.5 8.3c-2.7 2.7-5.1 5.1-7.1 7.3-2 2.1-3.5 3.7-4.2 4.8-.8.9-1.7 1.7-2.8 2.4-1.1.7-2.3.9-3.6.5-1-.3-1.6-.8-1.9-1.5-.3-.8-.4-1.6-.1-2.4.4-1.4 1.2-3.7 2.5-6.6 1.3-3 2.8-6.3 4.4-10.1 1.7-3.7 3.5-7.6 5.6-11.6 2-4 4-7.8 5.9-11.4 1.9-3.6 3.7-6.7 5.3-9.4 1.7-2.7 2.9-4.5 3.8-5.5 1.6-1.6 3.6-2.6 6.1-3 2.5-.4 4.7-.3 6.8.3 1.1.3 1.8.8 2.1 1.6.3.8.3 1.7 0 2.7-.3 1-.8 2.1-1.5 3.3-.8 1.3-1.6 2.5-2.6 3.7-1 1.2-1.9 2.5-2.9 3.7-.9 1.2-1.7 2.2-2.4 3.1-1.8 2.3-3.4 4.8-4.8 7.4-1.4 2.6-2.8 5.3-4 7.9 1.5-1.3 3.5-3 6.1-5.3 2.6-2.3 5.3-4.5 8.3-6.6 2.9-2.1 5.8-3.9 8.6-5.2 2.9-1.4 5.3-1.8 7.2-1.2 1.4.4 2.3 1.1 2.8 2.2s.9 2.3.9 3.7c.1 1.4 0 2.8-.2 4.2-.2 1.4-.5 2.6-.7 3.5l-2.4 8.4c-.9 2.8-1.7 5.6-2.4 8.4-.4 1.5-.8 3-1.3 4.6-.4 1.5-.6 3.1-.6 4.7v.6c0 .3.1.5.3.6.3.1.8-.2 1.4-.8.6-.6 1.1-1 1.4-1.3 2.5-2.4 5.2-4.8 7.9-7s5.4-4.5 8.1-6.7c1.6-1.3 3.5-2.9 5.6-4.7 2.1-1.8 4.4-3.5 6.7-5s4.7-2.8 7.2-3.6c2.5-.9 4.8-1 7-.4 1.5.4 2.8 1.2 3.7 2.3 1 1.1 1.6 2.3 2 3.7.4 1.4.6 2.8.6 4.3s-.2 2.9-.6 4.3c-1.5 5.6-3.4 11.1-5.6 16.5-2.2 5.4-4 10.9-5.6 16.5-.2.7-.4 1.5-.6 2.4-.2.9-.3 1.8-.3 2.7 0 .8.2 1.6.6 2.3.4.7 1 1.2 2 1.5 1.6.4 3.7.3 6.1-.4 2.4-.7 4.9-1.8 7.4-3 2.5-1.3 4.9-2.7 7.2-4.2s4.1-2.8 5.4-3.8c.7-.5 1.5-1.2 2.5-1.9s2-.9 3-.7c.9.2 1.3.7 1.4 1.5.1.7 0 1.5-.2 2.1-.1.5-.4.9-.9 1.4-.5.4-.9.8-1.3 1.1-2 1.5-4.5 3.3-7.6 5.3-3.1 2-6.4 3.8-9.9 5.3-3.5 1.6-6.9 2.8-10.3 3.7-3.4.8-6.3.9-8.9.2-2.4-.7-4.1-1.8-5-3.5-.9-1.7-1.5-3.7-1.6-5.9-.1-2.2 0-4.4.5-6.7s.9-4.3 1.4-6c1.2-4.3 2.6-8.6 4.2-12.9 1.6-4.2 3-8.6 4.2-13 .1-.4.2-.9.4-1.6.1-.7.2-1.4.2-2 0-.7-.1-1.3-.3-1.9-.2-.6-.6-.9-1.2-1.1-1.2-.3-2.9.2-5.1 1.5-2.2 1.3-4.7 3.1-7.4 5.4-2.7 2.3-5.6 4.8-8.6 7.7-3 2.9-5.9 5.6-8.6 8.3-2.7 2.7-5.1 5.1-7.2 7.3-2.1 2.2-3.7 3.7-4.8 4.7-.7.6-1.4 1.1-2.1 1.5-.7.3-1.6.4-2.5.1-.7-1.1-1.2-2.2-1.4-4.2M821.3 1566.6c1.9-4.4 4.3-8.4 7.2-12.1 2.9-3.6 6.3-6.6 10.1-8.9 3.8-2.3 7.9-3.1 12.4-2.5 2.8.4 5 1.3 6.6 2.9 1.6 1.5 2.8 3.4 3.6 5.5.8 2.1 1.2 4.4 1.3 6.9.1 2.4 0 4.8-.3 7.1-.5 3.3-1.2 6.5-2.3 9.8-1.1 3.2-2.4 6.3-4.1 9.2-1.7 2.9-3.7 5.6-6.1 8-2.4 2.4-5.1 4.4-8.2 5.8-1.8.9-3.8 1.5-5.9 2-2.1.5-4.2.6-6.3.3-2.7-.4-4.9-1.3-6.5-2.8-1.7-1.5-2.9-3.3-3.7-5.3-.8-2-1.3-4.3-1.5-6.7-.2-2.4-.1-4.8.2-6.9.4-3.9 1.6-8 3.5-12.3m20.5-11.2c-2.4 2-4.6 4.5-6.5 7.5-1.9 3-3.4 6.1-4.6 9.4-1.2 3.3-2 6-2.3 8.3-.2 1.2-.2 2.5-.2 4s.2 2.8.6 4.1c.4 1.3 1 2.4 1.9 3.4.9 1 2.1 1.6 3.5 1.8 1.3.2 2.5.1 3.8-.3 1.2-.4 2.4-.9 3.5-1.6 2.1-1.2 3.9-2.8 5.6-4.6 1.6-1.8 3-3.9 4.2-6 1.2-2.2 2.1-4.4 2.8-6.8.7-2.4 1.3-4.7 1.6-7 .2-1.2.3-2.6.3-4.2s-.2-3.1-.6-4.6c-.4-1.4-1.1-2.7-1.9-3.8-.9-1.1-2.1-1.7-3.7-1.9-2.9-.5-5.6.3-8 2.3M876.5 1570.4c.8-4.7 2.1-9.2 3.7-13.5.9-2.3 2.3-4 4.2-5.2 1.9-1.2 4-1.8 6.3-1.7 2.3.1 3.4 1.2 3.3 3.4 0 .8-.2 1.6-.5 2.5-.3.8-.5 1.7-.8 2.4-.9 2.5-1.8 5.2-2.8 8.2-1 3-1.9 6-2.6 9.1-.8 3.1-1.5 6.2-2 9.3-.6 3.1-.9 5.9-1 8.5 0 1 0 2.3.2 3.8s1 2.3 2.4 2.4c1.7.1 3.6-.6 5.7-2.1s4.3-3.4 6.6-5.7c2.3-2.4 4.5-5 6.7-7.9 2.2-2.9 4.3-5.8 6.2-8.7 1.9-2.9 3.6-5.5 5.1-8 1.5-2.4 2.6-4.4 3.3-5.9.4-.9.9-1.9 1.3-3s1-2.2 1.6-3.1c.6-.9 1.4-1.7 2.3-2.3.9-.6 2-.9 3.3-.8.9 0 1.7.2 2.3.5.6.3.9 1 .9 2.1 0 1-.3 2-.6 2.9-.4.9-.8 1.8-1.1 2.7-.9 2.2-1.8 4.6-2.6 7.4-.9 2.8-1.6 5.6-2.3 8.5-.7 2.9-1.2 5.8-1.6 8.7-.4 2.9-.7 5.5-.8 7.8v2.9c0 1.2.2 2.4.5 3.6.3 1.2.7 2.2 1.2 3.1.6.9 1.3 1.3 2.3 1.4 1.5.1 3.4-.9 5.8-2.8 2.4-2 4.8-4.3 7.2-6.9 2.4-2.7 4.7-5.3 6.7-7.9 2.1-2.6 3.5-4.6 4.4-5.8.5-.7 1.2-1.6 2.1-2.7.9-1.1 1.8-1.7 2.7-1.6.9 0 1.5.3 1.7.9.2.6.3 1.2.3 2 0 .5-.2 1-.4 1.6-.3.5-.5 1.1-.7 1.5-1.3 2.3-3.2 5.2-5.8 8.4-2.5 3.3-5.4 6.4-8.5 9.3-3.1 3-6.3 5.5-9.6 7.6-3.3 2.1-6.4 3-9.3 2.9-2.3-.1-4.1-1-5.3-2.6-1.2-1.7-2.2-3.6-2.8-5.8-.6-2.2-.9-4.6-1-7v-6.1c0-1 .1-2 .1-2.9 0-.9.2-1.8.4-2.8-1.6 2-3.5 4.4-5.8 7.1-2.3 2.7-4.8 5.3-7.5 7.7-2.7 2.4-5.5 4.4-8.5 6-2.9 1.6-5.8 2.4-8.6 2.3-2.7-.1-4.7-1-6.1-2.5-1.4-1.6-2.4-3.4-2.9-5.6-.6-2.2-.9-4.5-.9-7v-6.5c.3-4.7.8-9.3 1.6-14.1"/><path class="st0" d="M977.5 1547.6c-2.1 4.8-4.3 9.3-6.6 13.5-.5 1.1-1.2 2.2-1.8 3.2-.7 1-1.3 2-2 3-.4.5-.8 1.1-1.2 1.6-.4.6-.7 1.1-.9 1.6-.2.4-.3 1-.2 1.7 0 .7.1 1.3.1 1.7.1 1.5.3 3.8.7 7 .4 3.1 1 6.3 1.8 9.5s1.9 5.9 3.2 8.3c1.4 2.3 3 3.5 5 3.4 2.3-.1 4.6-1.1 7-3 2.4-1.9 4.6-4.1 6.8-6.6 2.1-2.5 4.1-5.1 5.8-7.9 1.7-2.7 3.1-5 4.1-6.9.4-.7.9-1.5 1.5-2.3.7-.8 1.4-1.3 2.2-1.3.6 0 1.1.2 1.5.6.4.4.6.9.7 1.5.1 1.1-.1 2.2-.6 3.2s-1 2.1-1.5 3.1c-1.3 2.5-3 5.3-5.2 8.6s-4.6 6.4-7.2 9.3c-2.7 2.9-5.5 5.4-8.5 7.5-3 2.1-6 3.2-9 3.4-2.6.1-4.9-.6-6.9-2.1s-3.8-3.5-5.2-6c-1.5-2.5-2.7-5.3-3.8-8.5-1-3.2-1.9-6.3-2.5-9.5-.7-3.2-1.1-6.2-1.5-9-.3-2.8-.5-5.2-.6-7.1-.2-4.9-.3-9.8-.2-14.8.1-5 .6-9.9 1.3-14.7-1 .3-2 .5-3.1.6-2.4.1-3.7-1-3.8-3.4-.1-2 .7-3.3 2.4-4 1.7-.7 3.4-1.1 5-1.3.7-2.7 1.7-6.4 2.9-11 1.3-4.6 2.9-9.2 4.9-13.8 2-4.6 4.3-8.5 7-11.8 2.7-3.3 5.8-5.1 9.3-5.2 1.6-.1 2.9.4 3.8 1.3.9 1 1.7 2.1 2.2 3.5.5 1.4.9 2.8 1 4.4.2 1.5.3 2.9.3 4 .2 3.9.1 7.9-.3 11.9s-1 8-1.9 11.8c1.7-.3 3.4-.6 5.1-1 1.7-.4 3.4-.6 5.1-.7 1.4-.1 2.1.6 2.2 1.9 0 .8-.1 1.4-.4 1.8-.3.4-.8.8-1.4 1.2-.4.2-1.1.5-2.2.9s-2.3.8-3.6 1.2c-1.3.4-2.5.8-3.7 1.2-1.2.4-2.1.6-2.7.7-.7 4.3-2.3 9-4.4 13.8m-14.1 2.1c-.1 4.1-.1 8.1-.3 12.1 1-1.5 2.2-3.3 3.4-5.6 1.2-2.3 2.4-4.7 3.6-7.2 1.1-2.5 2.1-5 3-7.4.9-2.4 1.5-4.5 2-6.3-1.8.5-3.6.8-5.4 1.1-1.8.2-3.5.6-5.2 1.2-.6 4.1-1 8.1-1.1 12.1m10.3-48.4c-1.6 2.8-3 6.1-4.2 9.8-1.2 3.7-2.2 7.4-3 10.9-.8 3.5-1.2 6.1-1.4 7.6 2-.4 4-.7 6.1-1 2.1-.2 4.1-.7 6.1-1.3 1-3.9 1.8-8.2 2.4-12.9.6-4.7.8-9.1.6-13.1v-1c0-.5-.1-1-.2-1.5s-.3-.9-.5-1.3-.5-.6-.9-.6c-1.8.1-3.4 1.6-5 4.4"/><path class="st0" d="M1038.6 1549.2c-1.6 2.4-3.2 5.3-5 8.9-1.7 3.6-3.5 7.5-5.3 11.8-1.8 4.3-3.5 8.4-5 12.3-1.5 4-2.8 7.5-3.9 10.7-1.1 3.1-1.9 5.4-2.3 6.8-.3.9-.6 2-1 3-.4 1.1-.9 2.1-1.4 3.1-.5 1-1.2 1.8-2 2.6-.8.7-1.8 1.2-2.8 1.3-1.1.2-2 0-2.7-.6-.7-.6-1.4-1.2-1.9-2.1-.5-.8-.9-1.8-1.2-2.8-.2-1-.4-1.9-.5-2.7-.4-2.6-.5-5.2-.5-7.7v-7.8l-.3-14.4c-.1-4.7-.3-9.5-.5-14.4-.2-5.4-.3-11.6-.4-18.5-.1-6.9-.1-13.8.1-20.9.2-7.1.7-13.9 1.5-20.5s2-12.5 3.7-17.5c.4-1.3 1-2.6 1.6-3.9.7-1.3 1.5-2.6 2.4-3.7.9-1.2 1.9-2.2 3.1-3 1.2-.8 2.5-1.3 3.9-1.5 1.7-.2 3.1.1 4.3.9 1.2.8 2.2 1.9 3 3.3.8 1.4 1.4 2.8 1.8 4.4.4 1.6.7 3 .9 4.2 1.6 11.1 1.5 22.2-.4 33.1-1.8 11-4.5 21.7-8.1 32.3-.8 2.5-1.8 5.1-2.7 7.5-1 2.5-1.9 4.9-2.7 7.4-.2.6-.4 2.1-.5 4.4-.1 2.3-.2 4.8-.3 7.6-.1 2.7-.1 5.4-.1 7.8 0 2.5 0 4.2-.1 5.2.6-2.1 1.5-4.7 2.7-7.9 1.2-3.2 2.5-6.5 4-10.1 1.5-3.6 3.2-7.2 5.1-10.8 1.9-3.6 3.8-6.9 5.9-9.9 2-3 4.2-5.5 6.5-7.5s4.6-3.2 6.9-3.5c1.7-.2 3.1 0 4.4.7 1.2.7 2.2 1.7 3.1 3 .8 1.2 1.5 2.6 2 4.1.5 1.5.8 2.9 1 4.3.9 6.2 1.3 12.5 1.2 18.9-.1 6.3.4 12.6 1.2 18.9.1.7.2 1.4.4 2.2.2.8.4 1.5.8 2.1.3.6.8 1.1 1.4 1.5.6.4 1.4.5 2.4.3 2.1-.3 4.2-1.5 6.3-3.5 2.1-2 4.1-4.3 5.9-6.9 1.9-2.6 3.6-5.3 5.1-8 1.5-2.7 2.7-5 3.4-6.7.3-.7.7-1.5 1.2-2.5s1.2-1.6 2.1-1.7c.9-.1 1.5.1 1.9.6.4.6.6 1.2.7 2 .1.5 0 .9-.1 1.3-.2.4-.3.8-.4 1.2-1.1 3.1-2.6 6.5-4.6 10.2-2 3.7-4.3 7.3-7 10.6-2.7 3.4-5.6 6.3-8.9 8.7-3.2 2.4-6.6 3.9-10.1 4.4-2.1.3-3.8-.3-5-1.7-1.3-1.4-2.3-3.2-3.1-5.3-.8-2.1-1.4-4.3-1.8-6.7-.4-2.3-.7-4.2-.9-5.6-.8-5.4-1.3-10.7-1.5-16.2-.2-5.4-.5-10.9-.7-16.3l-.2-1.2c-.1-.5-.2-1.2-.5-2.1-.2-.9-.7-1.3-1.5-1.2-1.1.1-2.4 1.3-4 3.7m-22.5-69.1c-1 3.2-1.9 7.2-2.5 12-.7 4.9-1.2 10.2-1.5 15.9-.3 5.8-.6 11.3-.7 16.6-.1 5.3-.1 10.1-.1 14.3 0 4.2.1 7.1.3 8.8 1.7-4.4 3.4-9.4 5-15.1 1.6-5.7 3-11.6 4.1-17.6 1.1-6 1.9-12 2.4-17.8.5-5.8.4-11-.2-15.6 0-.3-.1-.8-.2-1.6s-.3-1.6-.6-2.3c-.3-.8-.5-1.4-.8-2-.3-.6-.7-.8-1.2-.7-1.7.3-3 2-4 5.1M1106.4 1600.7c.4-1 .8-2.1 1.1-3.5.3-1.4.6-3 .8-4.8.2-1.8 0-3.9-.5-6.1-.3-1.1-.6-2.1-1.1-3.1-.5-1-.8-1.9-1.1-2.9-.4-1.7-.2-3.3.7-4.8.9-1.5 2.1-2.5 3.8-2.9 3.3-.8 5.3.4 6.1 3.5.1.5.2 1.1.4 1.9.1.8.2 1.4.2 2 .2 1.3.1 3.2-.4 5.7s-1.1 5.1-2 7.6c-.8 2.6-1.8 4.9-3 6.9s-2.4 3.2-3.8 3.5c-.9.2-1.4-.1-1.6-1-.2-.4 0-1.1.4-2M1179.2 1583.3c-1.1.4-2.3.7-3.5.9-1.2.2-2.3.2-3.2.1-1-.1-1.6-.6-2-1.4-.4-.9-.4-1.8.1-2.5.4-.7 1.1-1.3 1.9-1.6 1-.4 2.1-.8 3.2-1.1 1.1-.3 2.2-.7 3.2-1.1 4.1-1.8 7.1-4.8 8.8-9 1.7-4.2 2.7-9.1 2.9-14.7.2-5.6-.3-11.5-1.3-17.9-1-6.4-2.3-12.5-3.8-18.5s-3.1-11.5-4.7-16.6c-1.6-5.1-2.9-9.2-3.8-12.2-.5-2.1-1.3-4.1-2.1-6.1-.5-1.2-1.2-2.2-2-3.1-.8-.9-1.5-1.9-1.9-3-.4-1-.5-2.1-.1-3.3.4-1.2.9-2.4 1.7-3.5.8-1.1 1.6-2.2 2.6-3.1 1-.9 1.9-1.5 2.7-1.9 1.6-.7 2.9-.5 4 .5s2.1 2.1 2.8 3.3l1.8 3.1c1.3 2 2.6 3.9 3.9 5.7 1.3 1.8 2.7 3.6 4.1 5.4 1.2 1.5 3 3.7 5.6 6.8 2.6 3.1 5.5 6.5 8.8 10.3 3.3 3.8 6.8 7.6 10.6 11.5 3.8 3.9 7.4 7.3 11 10.3 3.5 3 6.8 5.3 9.7 6.9 3 1.6 5.3 2 7.1 1.3.6-.2 1-.7 1.2-1.4.2-.7.4-1.5.5-2.3.1-.8.1-1.6.1-2.5 0-.9-.1-1.5-.2-1.9-.3-3.8-.9-7.7-1.8-11.7-.9-4-1.8-8.1-3-12.1-1.1-4-2.3-8-3.7-12-1.3-4-2.6-7.7-3.8-11.4-1.3-4-2.6-8-4-11.8-1.4-3.9-2.9-7.7-4.6-11.6-.2-.5-.4-.9-.7-1.4-.2-.4-.5-.9-.7-1.4-.6-1.5-.8-2.7-.6-3.7.2-1 1.1-1.8 2.7-2.5 1.3-.6 2.3-.3 3 .7.7 1 1.3 2 1.6 2.9.9 2.2 2.4 5.9 4.4 11.2 2 5.3 4.1 11.2 6.3 17.9 2.2 6.7 4.3 13.7 6.3 20.9 2 7.3 3.5 14.1 4.5 20.4 1 6.3 1.2 11.8.8 16.3-.5 4.5-2 7.4-4.7 8.5-3.5 1.5-7.2 1.9-11 1.1-3.9-.7-7.7-2.2-11.5-4.5-3.8-2.2-7.6-5-11.4-8.2-3.7-3.3-7.3-6.6-10.7-10.1-3.4-3.5-6.5-6.8-9.3-10.1-2.8-3.3-5.2-6-7.3-8.3l-.9-.9c-.4-.3-.8-.4-1.2-.2-.4.2-.4.9-.2 2.3s.6 2.9 1.1 4.7c.5 1.7 1 3.4 1.6 5 .5 1.6.8 2.7 1 3.3.8 3.2 1.8 6.9 2.7 11 1 4.1 1.8 8.4 2.4 12.9.6 4.5 1 9 1 13.6 0 4.5-.4 8.8-1.4 12.8-1 4-2.6 7.6-4.8 10.7-2.3 3.1-5.4 5.6-9.5 7.3-.3.3-1.2.6-2.3 1M1355.5 1421c-2.2 1.4-4.6 2.3-7.3 2.8s-5.2 1.4-7.6 2.9c-1.6 1-3.2 2.1-4.6 3.2-1.5 1.1-3 2.3-4.5 3.5.3 2.7.8 5.5 1.7 8.6.9 3.1 1.9 6.1 3 9.1s2.4 5.9 3.8 8.8c1.4 2.9 2.8 5.4 4.3 7.7.8 1.3 1.7 2.4 2.7 3.3 1 .9 2 1.7 2.9 2.3l2.4 1.6c.7.4 1.1.7 1.2 1 .4.7.5 1.4.1 2.3-.3.9-.8 1.5-1.4 1.9-.9.6-2.1.8-3.4.5-1.3-.2-2.4-.6-3.4-1.1-2.1-1-4-2.6-5.8-4.7-1.7-2.1-3.2-4.1-4.5-6.1-2.7-4.3-5.1-8.9-7-13.8-1.9-4.9-3.4-9.8-4.6-14.8-4.2 4-8.2 8.2-12 12.7-3.8 4.5-7.3 9.2-10.5 14.1.6 2.3 1.4 5.2 2.4 8.7 1 3.5 1.9 7.2 2.7 11.2.9 4 1.5 8 2 12.2.5 4.1.6 8.1.4 11.7-.2 3.7-.9 7-2.2 10-1.2 3-3.1 5.3-5.7 6.9-3.6 2.3-7 3-10.2 2-3.2-1-5.9-3.2-8.1-6.7-1.8-2.9-3-6.1-3.6-9.6-.6-3.5-.7-7.1-.4-10.8.3-3.7.9-7.4 1.9-11 .9-3.6 1.9-6.9 3-9.8.7-2 1.6-4 2.6-5.9 1-1.9 1.9-3.9 2.6-5.9.1-.3-.3-1.3-1-3.2-.7-1.9-1.7-4.2-2.9-7s-2.6-5.8-4-9.1-2.8-6.3-4.2-9.3c-1.4-2.9-2.6-5.5-3.7-7.6-1.1-2.2-1.8-3.5-2.2-4.1-.8-1.3-1.9-2.7-3.3-4.4-1.4-1.7-2.9-3.2-4.5-4.5-1.6-1.3-3.4-2.3-5.2-2.8-1.8-.6-3.6-.3-5.3.8-.8.5-1.4 1.1-1.8 1.8-.4.7-1 1.3-1.8 1.8-.5.3-1.2.5-2.2.4-.9-.1-1.6-.4-2-1-.5-.8-.4-1.8.4-3.1.7-1.3 1.6-2.6 2.7-4 1.1-1.3 2.3-2.6 3.5-3.7 1.2-1.1 2.1-1.9 2.7-2.3 2.8-1.8 5.5-2.5 8.1-2.3 2.6.2 5.1 1 7.4 2.4 2.3 1.4 4.4 3.2 6.4 5.4 1.9 2.2 3.6 4.4 5 6.6 3.7 5.8 6.9 11.9 9.5 18.3 2.6 6.4 5 12.8 7.1 19.3 3.8-4.5 7.6-8.9 11.5-13.3 3.9-4.3 8.1-8.3 12.7-11.9-2-9.7-3.4-19.4-4.2-29.2-.8-9.8-1-19.7-.5-29.6 0-.9.1-2.2.2-3.8.1-1.6.3-3.2.5-4.8.2-1.6.6-3.1 1.1-4.5.5-1.4 1.2-2.3 2-2.9 1.1-.7 1.9-.6 2.5.3.5.8.8 1.8.9 2.9.1 1.1.1 2.2-.1 3.4-.2 1.2-.4 2.3-.6 3.4-.2 1.1-.4 2.1-.4 3.1-.2 4.4-.2 8.9 0 13.7.2 4.7.6 9.5 1.1 14.2.5 4.8 1.2 9.5 2.1 14.2.8 4.7 1.8 9.1 2.8 13.4 2-1.5 4-2.9 6.1-4.2 2-1.3 4.1-2.6 6.2-3.9 1.3-.8 2.6-1.6 3.8-2.4 1.3-.8 2.7-1.4 4.2-1.8 1.3-.5 2.6-.8 3.7-.9 1.1-.1 2.2.6 3.1 2 .6.9.8 1.9.5 3 .7 1 .1 1.8-.8 2.4m-62.5 57.4c-1.3 2.4-2.5 5.4-3.6 8.9-1.1 3.6-1.8 7.3-2.3 11.1-.5 3.8-.6 7.5-.2 11.1.4 3.6 1.3 6.6 2.9 9 .4.7 1.1 1.1 2 1.3.9.2 1.6 0 2.3-.4.8-.5 1.5-1.2 1.9-2.1.4-.9.8-1.8 1-2.8.3-1.5.4-4 .3-7.4-.1-3.4-.4-7-.8-10.8-.4-3.8-.9-7.4-1.6-10.7-.6-3.4-1.3-5.8-1.9-7.2"/><path class="st1" d="M516 361.5h-.2c-.1.1-.2.8-.9 4.9v.2l-5.2.3v.2c-.1 4.4 1.5 7 4.4 7.3 3.3.4 8.2.8 8.2.8h.2l.2-8.5c.1-2.9-2.3-4.8-6.7-5.2M495.5 371.5c-.2 2.4 2.4 5 5.7 5.7l6.1 1.3-.1-11.6-11.4.2v.2c.1 0-.1 1.9-.3 4.2M522.2 347.9c-2.3-.1-4.2-.2-4.2-.2h-.2l-1.6 11.3 11.5 1.5-.6-6.3c-.3-3.4-2.5-6.2-4.9-6.3M510.3 343.9l-5.2-7.5-3.5 13 4.4 7.2-6.8-5.1-13.2 1.8 6.9 6.1c2.4 2.1 7.4 4.1 10.7 3.6l7.8-.4 1.3-7.6c.8-3.2-.6-8.5-2.4-11.1M471.1 347.6l-8.4-7.3-3 5.1c-1.6 2.8-.6 7.8 2.4 11.1l10.1 11.4 2.5-7.6c1.4-4-.3-9.7-3.6-12.7M513.6 325.9l7.9-1.6-10.1-11.4c-3-3.3-7.8-5-10.8-3.7l-5.5 2.4 6.3 9.2c2.5 3.6 8 5.9 12.2 5.1M488.6 360.6l-6.9-6.1-2.5 4.3c-1.4 2.3-.5 6.4 2 9.2l8.4 9.4 2.1-6.3c1-3.3-.3-8-3.1-10.5M522.3 344.2l6.5-1.3-8.4-9.4c-2.5-2.8-6.4-4.1-8.9-3.1l-4.5 2 5.2 7.6c2.1 3 6.6 4.9 10.1 4.2"/><path class="st1" d="M505.4 301.2c-2-.7-10.4-3.1-17-.8-4.9 1.7-9.8 4.3-13.4 7.1-1.4 1.3-3.1 2-4.3 2-1.7 0-3-.9-4.2-1.8l-3-3.3-3.7 3.3 2.9 3.2c.8 1.4 1.6 2.8 1.4 4.5-.1.9-.7 2-1.5 3-4.7 4.5-7.6 8.5-10.1 13.8-3 6.4-1.6 14.9-1.3 17l11.4-17h.1l17.7-4.6 7.1-17.3h.1l17.8-9.1z"/><path class="st1" d="M484.5 329.4l8 11.8-10.8-9.4-17 4.3 9.3 8.2c3.3 3 9.6 4.9 14 4.3l9.8-1.3 2.5-9.6c1.1-4.3 0-10.8-2.6-14.4l-7-10.2-6.2 16.3z"/><path class="st0" d="M325.1 1036.8c1.2 4.8 1.7 9.7 1.5 14.6-.2 4.9-1.1 9.6-2.6 14.3v-.2c-1.1 3.3-2.4 6.3-3.9 9.1-1.5 2.7-2.7 4.7-3.4 5.7l-19.3-12.5c.8-1 1.6-2.4 2.5-4.4.9-2 1.7-4.1 2.4-6.6.7-2.4 1.1-4.9 1.4-7.4.3-2.5.1-4.8-.4-6.9-.5-1.8-1.1-3.5-2-5.2-.9-1.7-1.9-3.1-3.2-4.4-1.3-1.2-2.8-2.2-4.5-2.7-1.7-.6-3.7-.6-5.9 0-.8.2-1.7.7-2.5 1.6-.9.8-1.7 2.1-2.5 3.8-.8 1.7-1.5 4-2.2 6.9-.7 2.9-1.3 6.4-1.8 10.5-.6 4.8-1.3 9.4-2.3 13.7-1 4.3-2.4 8.1-4.4 11.6-1.9 3.5-4.4 6.4-7.3 8.8-3 2.4-6.7 4.1-11.1 5.3-4.5 1.1-9 1.4-13.3.7-4.4-.7-8.4-2.2-12.1-4.6-3.7-2.4-6.9-5.5-9.6-9.5-2.7-3.9-4.8-8.5-6.1-13.8-.7-2.8-1.1-6-1.2-9.3-.1-3.4.1-6.8.5-10.1s1-6.5 1.8-9.6c.8-3.1 1.8-5.7 2.9-7.9l20.5 9.2c-.9 2.3-1.6 4.7-2.2 7.1-.5 2-.9 4.3-1.1 6.8-.3 2.5-.1 5 .5 7.4 1.1 4.4 2.9 7.6 5.2 9.7 2.4 2 5.2 2.6 8.4 1.8 1.5-.4 2.7-1.2 3.7-2.4s1.8-2.7 2.4-4.5c.6-1.8 1.1-3.8 1.4-6 .3-2.2.6-4.5.8-6.9.8-6.9 1.9-12.9 3.3-17.8s3.1-9.1 5.2-12.4c2.1-3.3 4.6-6 7.6-7.9 2.9-1.9 6.3-3.4 10.1-4.3 4.6-1.2 9.2-1.3 13.8-.5 4.6.8 8.8 2.5 12.6 5.1 3.8 2.5 7.2 5.9 10.1 10 2.8 4 4.9 8.7 6.3 14.1M307.5 935.1c.6 6.5 0 12.5-1.8 18.1-1.7 5.6-4.4 10.5-7.9 14.7-3.6 4.2-7.9 7.6-13.1 10.2-5.2 2.6-11.1 4.2-17.5 4.8l-70.3 6.2-2-22.4 67.4-5.9c3.8-.3 7.2-1.2 10.1-2.7 3-1.5 5.4-3.3 7.4-5.5 1.9-2.2 3.4-4.6 4.3-7.3.9-2.7 1.2-5.4 1-8.3-.2-2.8-1.1-5.5-2.4-8-1.4-2.5-3.2-4.6-5.5-6.5-2.3-1.8-5-3.2-8.2-4.1-3.2-.9-6.7-1.2-10.4-.9l-67.4 5.9-2-22.5 70.3-6.2c6.5-.6 12.5 0 18.1 1.7 5.6 1.7 10.5 4.3 14.7 7.9 4.2 3.5 7.7 7.9 10.4 13.1 2.6 5.4 4.3 11.3 4.8 17.7M227.5 775.7c3.7.3 7.6 1.5 11.7 3.5s7.6 5.5 10.4 10.4c1.5-2.7 3.4-5 5.5-6.8 2.1-1.9 4.4-3.4 6.7-4.5s4.7-1.9 7.1-2.3c2.4-.4 4.8-.6 7.1-.4 4.2.4 8.3 1.4 12.2 2.9 3.9 1.6 7.4 4 10.4 7.3 3 3.2 5.3 7.4 6.8 12.5 1.6 5.1 2 11.3 1.4 18.6l-4 45.9-113.4-9.8 4-45.5c.4-4.9 1.7-9.3 3.8-13.4 2.1-4.1 4.7-7.5 7.9-10.4 3.1-2.9 6.7-5 10.6-6.5 3.8-1.3 7.8-1.9 11.8-1.5m8.1 58.7l1.8-20.4c.3-4-.3-7.3-2-9.9-1.7-2.6-4.1-4-7.2-4.3-3.1-.3-5.9.7-8.3 2.9-2.4 2.2-3.8 5.4-4.2 9.4l-1.8 20.4 21.7 1.9zm48.5-16.5c.5-6.2-.2-10.7-2.3-13.6-2.1-2.9-4.7-4.5-7.8-4.8-1.6-.1-3.2 0-4.8.4-1.6.4-3 1.2-4.2 2.4-1.2 1.2-2.3 2.9-3.2 5.1-.9 2.2-1.5 5-1.8 8.3l-1.8 20.6 24.1 2.1 1.8-20.5zM331.3 690.4l-16.4 66.5-110.6-27.2 5.4-22 88.7 21.9 11-44.6zM231.984 631.257l7.763-21.118 106.906 39.294-7.762 21.12zM317 454.6l100.1 56.7-11.1 19.5-64-36.2 15.2 55.7-55.5 15.5 64 36.2-11.1 19.7-100.1-56.6 6.2-10.9 69.1-19.4-18.9-69.4zM382.7 411l17.3 15 24.2-27.9 17.2 14.9-24.2 27.9 17.4 15 33.1-38.3 17.1 14.8-47.9 55.4-86.1-74.5 47.9-55.4 17.1 14.8zM617.9 234.5c1.8 3.2 3.1 7.1 3.8 11.6.7 4.5-.2 9.4-2.6 14.5 3.1-.3 6-.1 8.7.6 2.7.7 5.2 1.7 7.5 2.9 2.2 1.3 4.2 2.8 6 4.6 1.7 1.8 3.2 3.6 4.3 5.6 2.1 3.7 3.6 7.6 4.6 11.7.9 4.1.9 8.4 0 12.7-1 4.3-3.1 8.6-6.4 12.7-3.3 4.2-8.1 8.1-14.5 11.8l-40 22.9-56.6-98.8 39.6-22.7c4.2-2.4 8.6-3.9 13.1-4.5 4.5-.6 8.9-.4 13 .5 4.2.9 7.9 2.6 11.4 5 3.4 2.5 6.1 5.4 8.1 8.9m-43.6 40.1l17.8-10.2c3.5-2 5.8-4.4 7-7.3 1.2-2.9 1-5.7-.6-8.4s-4-4.5-7.2-5.2c-3.2-.7-6.6-.1-10.1 1.9l-17.8 10.2 10.9 19zm41.2 30.4c5.4-3.1 8.6-6.3 9.8-9.7 1.2-3.4 1-6.4-.6-9.2-.8-1.4-1.8-2.6-3.1-3.7-1.2-1-2.7-1.7-4.4-2.1-1.7-.3-3.7-.2-6 .3s-5 1.6-7.9 3.3l-17.9 10.3 12.1 21 18-10.2zM771.8 262.7l-26 9.5-43.9-30.3-12.8 4.7 14.8 40.8-21.1 7.7-38.9-107 43.3-15.7c4.5-1.6 9-2.3 13.6-2 4.6.3 9 1.4 13.1 3.3s7.8 4.5 11 7.9c3.2 3.3 5.7 7.3 7.3 11.9 2.4 6.7 2.9 13.4 1.4 20s-4.6 12.2-9.3 16.8l47.5 32.4zm-72.2-43.9c5.4-2 8.9-4.6 10.6-7.9 1.7-3.3 1.9-6.6.7-9.9-1.2-3.3-3.5-5.6-6.9-6.9-3.4-1.4-7.8-1.1-13.2.9l-18.2 6.6 8.7 23.9 18.3-6.7zM795 165.3l4.2 22.6 36.3-6.9 4.2 22.4-36.2 6.8 4.2 22.6 49.7-9.4 4.2 22.2-71.9 13.6-21.1-111.9 71.9-13.6 4.2 22.2zM1029.3 128.9l-38.1 114.8-11.7-.2-29.3-70.4-31.7 69.5-11.7-.2-34.3-115.6 23.6.4 19.9 66.4 30.2-66.7 9.3.1 28.2 67.7c3.6-10.8 7.3-21.8 11-33s7.4-22.2 11-33l23.6.2zM1044.423 250.336l20.707-111.998 22.125 4.09-20.707 111.998zM1131.3 149.8l9.4 3.2 36.8 84.2 21.2-63.8 21.3 7.1-36.2 109.2-9.6-3.2-36.7-84-21.1 63.6-21.4-7.1zM1283.8 267.2l38.9 21.7-23.6 42.3c-8.1 1.8-15.8 2.4-23 1.7-7.3-.7-14.4-3-21.4-6.9-7.7-4.3-13.8-9.6-18.5-16-4.6-6.4-7.9-13.1-9.6-20.3-1.8-7.1-2.2-14.4-1.2-21.8 1-7.4 3.3-14.3 6.9-20.7 4.3-7.7 9.6-13.8 16-18.5 6.4-4.7 13.2-7.9 20.3-9.7 7.1-1.8 14.4-2.2 21.8-1.2 7.4 1 14.3 3.2 20.8 6.8 6.7 3.8 12.5 8.8 17.3 15.1 4.8 6.3 8.4 13.5 10.7 21.6l-21.4 6.7c-1.7-5.3-4-10-7-14-3-4.1-6.5-7.3-10.6-9.6-4.3-2.4-8.7-3.8-13.4-4.3-4.6-.5-9.2-.1-13.5 1.2-4.4 1.3-8.4 3.4-12.2 6.3-3.7 2.9-6.8 6.5-9.2 10.7-2.4 4.3-3.8 8.7-4.3 13.4-.5 4.6-.1 9.1 1.1 13.5 1.2 4.4 3.3 8.4 6.1 12.1 2.8 3.7 6.4 6.7 10.7 9.1 2.8 1.6 5.9 2.8 9.2 3.6 3.3.8 6.6 1.1 9.8 1.1l7.4-13.2-19.3-10.8 11.2-19.9zM1474.1 493.4c-9-.7-17.3-2.8-24.8-6.2-7.5-3.4-13.9-8.2-19.2-14.5-5.7-6.7-9.6-13.8-11.7-21.4-2.1-7.6-2.7-15.1-1.9-22.4.9-7.4 3.1-14.3 6.6-20.9 3.5-6.6 8.1-12.2 13.6-16.9 6.4-5.5 13.4-9.3 21-11.5 7.5-2.2 15-2.9 22.4-2.2 7.4.8 14.5 2.9 21.2 6.3 6.7 3.5 12.5 8.1 17.3 13.8 4.9 5.8 8.6 12.6 10.9 20.3 2.4 7.7 3.2 15.8 2.4 24.1l-22.4-1.7c.4-5.4-.1-10.5-1.5-15.3-1.4-4.8-3.7-9.1-6.8-12.7-3.2-3.7-6.8-6.6-11.1-8.6-4.2-2-8.6-3.2-13.1-3.6-4.5-.4-9 .1-13.5 1.6-4.5 1.4-8.6 3.7-12.3 6.8-3.7 3.2-6.6 6.8-8.7 11-2.1 4.2-3.3 8.5-3.7 13-.4 4.5.1 9 1.5 13.5s3.6 8.6 6.8 12.3c3.5 4.1 7.6 7.2 12.4 9.2 4.8 2 10.1 3.3 16.1 3.7l-1.5 22.3zM1491.5 561.1c-3.6-6.3-6-13.1-7.1-20.5-1.1-7.4-.8-14.7.8-21.9 1.7-7.3 4.8-14.1 9.3-20.5 4.6-6.4 10.7-11.8 18.3-16.2 6.6-3.8 13.7-6.1 21.2-7.1 7.6-1 15-.5 22.2 1.3 7.2 1.8 14 5 20.3 9.6 6.3 4.6 11.5 10.5 15.7 17.7 3.7 6.5 6.1 13.5 7 21 1 7.5.6 14.9-1.2 22.1-1.8 7.2-5 14-9.6 20.4-4.6 6.4-10.6 11.7-17.9 15.9-6.5 3.7-13.5 6.1-21 7-7.5 1-14.9.6-22.1-1.2-7.2-1.8-14-5-20.3-9.6-6.2-4.7-11.4-10.7-15.6-18m81.2-46.5c-2.4-4.2-5.5-7.8-9.2-10.6-3.7-2.8-7.8-4.8-12.3-6-4.4-1.2-9-1.5-13.7-1-4.7.6-9.1 2-13.4 4.5-4.2 2.4-7.7 5.5-10.5 9.3-2.8 3.8-4.8 7.8-5.9 12.2-1.2 4.4-1.5 8.9-1 13.5s2 9.1 4.4 13.3c2.4 4.2 5.5 7.8 9.2 10.6 3.7 2.8 7.8 4.8 12.1 6 4.4 1.2 8.9 1.5 13.5 1s9.1-2 13.3-4.4c4.2-2.4 7.8-5.5 10.6-9.3 2.8-3.8 4.9-7.9 6.1-12.3 1.2-4.4 1.6-8.9 1.1-13.5-.5-4.7-2-9.1-4.3-13.3M1676.4 712.3l-109.8 34.3-6.7-21.4 70.2-21.9-51-27 26.6-51.1-70.2 21.9-6.8-21.6 109.8-34.3 3.8 11.9-33.1 63.8 63.5 33.6zM1572.2 794.3l-2.5-22.5 113.2-12.7 5.1 45.8c.5 4.7.1 9.3-1.2 13.7-1.4 4.4-3.5 8.4-6.3 11.9s-6.2 6.5-10.2 8.8c-4 2.4-8.4 3.8-13.3 4.3-4.8.5-9.5.1-14.1-1.2-4.5-1.4-8.5-3.4-12-6.3-3.5-2.8-6.4-6.3-8.7-10.3-2.3-4.1-3.7-8.5-4.3-13.2l-2.6-23.3-43.1 5zm65.5-7.3l2.1 19.1c.6 5.7 2.4 9.8 5.2 12.2 2.8 2.4 6 3.4 9.4 3 3.4-.4 6.2-2.1 8.4-5 2.1-3 2.9-7.3 2.2-13l-2.1-19.1-25.2 2.8zM1692.3 904.5l-116.5 47.8.7-24.9 21.1-8.6 1.3-43.4c-3.2-1.5-6.7-3.2-10.4-4.9-3.7-1.8-7.1-3.4-10.2-4.8l.7-24.7 113.5 54-.2 9.5zm-71.8 4.8l26.7-10.9-26-12.5-.7 23.4zM1686.6 986.2l-2.1 9.7-79.6 46.1 65.8 13.8-4.6 22-112.6-23.7 2.1-9.9 79.4-46-65.6-13.8 4.6-22zM1618.3 1206.2l-38.9-61.5-51.1-20.4 8.4-21 51.1 20.4c5.4-1.3 11.1-2.8 17.1-4.3 6-1.5 12-3 18.1-4.5 6.1-1.5 12.1-3 18.1-4.5 6-1.5 11.7-2.9 17.1-4.3L1648 1132l-43.2 10.8 23.9 37.4-10.4 26z"/><path class="st1" d="M1360.7 365.5l-.1-.2c-.1-.1-.9-.2-5.1-.8h-.2l-.4-5.5h-.2c-4.6 0-7.3 1.7-7.6 4.7-.3 3.4-.7 8.6-.7 8.7v.2l8.9.1c3-.1 5-2.6 5.4-7.2M1349.8 344.1c-2.5-.2-5.2 2.5-5.9 6.1l-1.3 6.5 12.1-.2-.4-12h-.2c.2-.1-1.8-.2-4.3-.4M1375 371.7c.1-2.4.1-4.4.1-4.4v-.2l-11.9-1.5-1.4 12.1 6.6-.7c3.6-.3 6.6-2.7 6.6-5.3M1379.1 359.2l7.8-5.6-13.7-3.5-7.5 4.7 5.3-7.2-2.1-13.8-6.3 7.3c-2.2 2.5-4.2 7.9-3.7 11.3l.5 8.2 8 1.2c3.4.9 9-.6 11.7-2.6M1374.6 318.1l7.6-8.9-5.4-3.1c-3-1.7-8.2-.5-11.7 2.7l-11.9 10.8 8 2.6c4.4 1.3 10.4-.5 13.4-4.1M1398 362.4l1.8 8.2 11.9-10.8c3.5-3.2 5.2-8.3 3.7-11.3l-2.6-5.7-9.5 6.7c-3.9 2.7-6.3 8.5-5.3 12.9M1361.2 336.7l6.2-7.4-4.5-2.6c-2.4-1.4-6.7-.4-9.6 2.2l-9.8 8.9 6.7 2.1c3.5 1.2 8.5-.2 11-3.2M1378.9 371.8l1.5 6.8 9.8-8.9c2.9-2.6 4.3-6.8 3.1-9.4l-2.1-4.7-7.9 5.5c-3.2 2.3-5.2 7.1-4.4 10.7"/><path class="st1" d="M1423.7 353.5c.7-2.1 3.1-10.9.6-17.9-1.9-5.1-4.6-10.2-7.6-14-1.4-1.5-2.2-3.2-2.2-4.5 0-1.8.9-3.1 1.9-4.4l3.5-3.1-3.5-3.8-3.4 3.1c-1.4.9-2.9 1.7-4.7 1.5-.9-.1-2.1-.6-3.2-1.6-4.8-4.9-9-7.9-14.7-10.4-6.7-3-15.7-1.5-17.8-1.1l18 11.7v.1l5.1 18.5 18.3 7.2v.1l9.7 18.6z"/><path class="st1" d="M1393.8 331.9l-12.3 8.6 9.7-11.4-4.7-17.8-8.5 9.8c-3 3.5-5 10.2-4.3 14.8l1.5 10.3 10.1 2.5c4.5 1.1 11.3-.2 15.1-2.9l10.6-7.5-17.2-6.4z"/><path class="st0" d="M1286.6 1015.5c0 44.9-10.8 83.4-32.5 115.7s-54.2 60.6-97.5 85c-17.3 10.2-58.3 31.1-122.9 62.6-72.5 35.4-111.9 53.1-118.2 53.1-.8 0-25.6-19.6-74.5-58.7-27.6-21.9-53.4-37.6-77.4-47-24-9.4-50.4-17.8-79.2-25.3-28.8-7.4-56.1-11.1-82.1-11.1V1172c33.1-24.4 63-49.2 89.8-74.5 31.5-29.9 52.8-44.9 63.8-44.9 34.7 0 79.6 12.2 134.7 36.6 40.2 17.3 69.3 32.7 87.5 46.1 18.1 13.4 35.1 30 50.8 49.6 10.2 12.6 19.3 18.9 27.2 18.9 11 0 20.5-6.9 28.4-20.7 7.9-13.8 11.8-29.7 11.8-47.8 0-45.6-37-88.9-111.1-129.9-69.3-36.2-138.7-72.4-208-108.6-75.6-48.8-113.5-104.7-113.5-167.6 0-31.5 9-60.6 27.2-87.4 25.2-37.8 67-68.8 125.3-93.3 135.5-57.4 209.6-86.2 222.2-86.2 2.4 0 21.3 19.5 56.7 58.5 18.9 21.1 37.8 38.3 56.7 51.7 10.2 7.9 23.6 15.4 40.2 22.5 46.5 20.5 70.5 31.1 72.1 31.9-7.1 7.1-31.5 21.3-73.3 42.5-14.2 7.1-35.1 17.3-62.6 30.7-10.3-2.4-18.9-4.3-26-5.9-41-11-75.3-23.6-102.8-37.8-33.9-18.9-60.3-46.1-79.2-81.6-7.1-12.6-15-18.9-23.6-18.9-11 0-22.5 6.7-34.3 20.1-14.2 16.5-21.3 35.8-21.3 57.8 0 17.3 45.3 48 135.9 92.1 52.8 26 94.6 48 125.3 66.1 68.5 40.9 113.1 72 133.6 93.3 33.9 34.9 50.8 78.2 50.8 130.2"/><path class="st2" d="M1286.6 1015.5c0 44.9-10.8 83.4-32.5 115.7s-54.2 60.6-97.5 85c-17.3 10.2-58.3 31.1-122.9 62.6-72.5 35.4-111.9 53.1-118.2 53.1-.8 0-25.6-19.6-74.5-58.7-27.6-21.9-53.4-37.6-77.4-47-24-9.4-50.4-17.8-79.2-25.3-28.8-7.4-56.1-11.1-82.1-11.1V1172c33.1-24.4 63-49.2 89.8-74.5 31.5-29.9 52.8-44.9 63.8-44.9 34.7 0 79.6 12.2 134.7 36.6 40.2 17.3 69.3 32.7 87.5 46.1 18.1 13.4 35.1 30 50.8 49.6 10.2 12.6 19.3 18.9 27.2 18.9 11 0 20.5-6.9 28.4-20.7 7.9-13.8 11.8-29.7 11.8-47.8 0-45.6-37-88.9-111.1-129.9-69.3-36.2-138.7-72.4-208-108.6-75.6-48.8-113.5-104.7-113.5-167.6 0-31.5 9-60.6 27.2-87.4 25.2-37.8 67-68.8 125.3-93.3 135.5-57.4 209.6-86.2 222.2-86.2 2.4 0 21.3 19.5 56.7 58.5 18.9 21.1 37.8 38.3 56.7 51.7 10.2 7.9 23.6 15.4 40.2 22.5 46.5 20.5 70.5 31.1 72.1 31.9-7.1 7.1-31.5 21.3-73.3 42.5-14.2 7.1-35.1 17.3-62.6 30.7-10.3-2.4-18.9-4.3-26-5.9-41-11-75.3-23.6-102.8-37.8-33.9-18.9-60.3-46.1-79.2-81.6-7.1-12.6-15-18.9-23.6-18.9-11 0-22.5 6.7-34.3 20.1-14.2 16.5-21.3 35.8-21.3 57.8 0 17.3 45.3 48 135.9 92.1 52.8 26 94.6 48 125.3 66.1 68.5 40.9 113.1 72 133.6 93.3 33.9 34.9 50.8 78.2 50.8 130.2z"/><path class="st1" d="M1379.2 1243.1c.1 0 .1 0 0 0 .1 0 0 0 0 0M1379.3 1243.1s0-.1 0 0c0-.1 0 0 0 0"/><path class="st0" d="M1382 1435.4c11.1-5.2 24-14.8 37.6-27.5 2.1-1.9 4.3-3.8 2.3-8.4-6.7-15.5-2.1-24.1 5.6-32.4 2.5 8.1 4.9 15.8 7.7 24.8 7.3-10.6 17.8-7.9 29.4-4.1-3.7 5.2-6.9 10.6-11 14.7-4.2 4.2-10 4.9-15.8 1.2-3.7-2.4-5.3-1.8-7.4.6-13.8 16.2-27.6 28.9-39.3 38M1541.8 1193.6c-2.1 2.8-4.2 5.7-6.4 8.5-10.1 13-20.6 26.2-26.9 43.3-3.3 9-4 17.2-1.9 26.2 3.3 13.8-1.2 26.9-12.3 36.2-1.9-5.8-3.9-11.4-5.5-17.2-2-7-.4-13.2 3.2-19.4 4.8-8.1 8.6-17 13.1-25.3 5.8-10.6 11.3-21.4 17.7-31.2 5.3-8.2 11.7-15.2 17.5-22.5"/><path class="st0" d="M1567.8 1192.6c-8.1 11.9-15.7 24.9-24.3 37.7-4.7 6.9-8.8 13.6-8.5 22.6.3 9.8-5.1 16.6-11.7 22.5-1 .5-2.1.9-3.1 1.4-3.2 1.4-6.3 2.8-10.3 4.5.5-12.7.9-25.4 11.5-33.3 16.9-12.8 28.6-29.9 38.3-47.8 1.5-2.7 3.3-5.1 5-7.6"/><path class="st0" d="M1520.1 1276.8c1-.5 2.1-.9 3.1-1.4 6-1.2 12.1-2.2 18-4.2 3.3-1.1 7-3 9.3-5.7 11.3-13.8 22.1-27.5 32.1-38.8-7.5 12.2-17 25.7-27.9 38.8-6.3 7.4-12.3 15.3-18.1 23.4-4.5 6.3-9.8 9.2-16.3 9.4-4.7.2-9.5-.2-14.9-.6 3.3-8.8 8.6-15.2 14.7-20.9M1447.4 1333.5c1 9.7 2 18.2 2.6 26.6.9 12.7-6.1 19.9-13.4 26.4-11.5-35.4-7.4-27.8 10.8-53M1484.8 1281.9c3.7 19.4 9 39.4-9.4 53.7-10.5-24.4-9.7-27.5 9.4-53.7"/><path class="st0" d="M1456.5 1361.7c-14.3-23.1-4.3-37.5 9.1-51.7 7.4 24.6 4.7 40.7-9.1 51.7M1446.7 1379c6.8-11.2 13.8-20.2 27.6-20 5.9 0 11.7-1.3 18.5-1-6.1 7.8-11.4 16.5-18.5 22.5-8.1 6.9-17.8-.6-27.6-1.5M1466.5 1353.4c6.3-11.3 12.8-20.7 25.6-21.9 6.4-.6 12.8-1.8 19.3-3.1-17.6 25.3-13.3 31.4-44.9 25"/><path class="st0" d="M1527.8 1299.4c-3.1 5.8-6.6 13.2-10.9 20-28.1 44.5-2.4 8.3-17 7.9-4.2-.2-8.4-.7-12.6-1.2 1.4-14.9 16.7-23.1 40.5-26.7M503.4 1445c-11.4-4.7-24.5-13.9-38.4-26.3-2.1-1.9-4.4-3.7-2.4-8.3 6.5-15.6 1.7-24.1-6.2-32.3-2.4 8.1-4.7 15.9-7.3 24.9-7.5-10.5-18-7.5-29.5-3.5 3.8 5.1 7.1 10.5 11.3 14.5 4.3 4.1 10.2 4.7 15.8.8 3.6-2.5 5.3-1.9 7.4.5 14.2 15.8 28.3 28.1 40.3 36.8M339.2 1206.2c2.2 2.8 4.3 5.6 6.6 8.4 10.3 12.8 21 25.8 27.5 42.9 3.4 8.9 4.3 17.2 2.3 26.3-3.1 13.9 1.6 27 12.9 36.2 1.8-5.8 3.7-11.5 5.2-17.4 1.9-7.1.2-13.3-3.5-19.4-4.9-8.1-8.9-16.9-13.5-25.1-5.9-10.6-11.7-21.2-18.2-31-5.4-8.1-11.9-15-17.9-22.1"/><path class="st0" d="M313.2 1205.7c8.3 11.7 16.2 24.6 25 37.2 4.8 6.9 9 13.5 8.9 22.5-.1 9.9 5.4 16.5 12 22.4 1 .5 2.1.9 3.1 1.4 3.2 1.3 6.3 2.7 10.4 4.3-.6-12.8-1.3-25.5-12-33.2-17.1-12.5-29-29.5-39.1-47.2-1.5-2.7-3.4-5.1-5.2-7.5"/><path class="st0" d="M362.2 1289.2c-1-.4-2.1-.9-3.1-1.4-6.1-1.1-12.2-2-18.1-3.8-3.3-1-7-2.8-9.3-5.6-11.5-13.6-22.5-27.2-32.6-38.4 7.7 12.1 17.4 25.5 28.5 38.4 6.4 7.4 12.5 15.1 18.4 23.2 4.5 6.2 10 9 16.4 9.1 4.7 0 9.4-.4 14.8-.9-3.4-8.6-8.8-15-15-20.6M435.8 1344.9c-.8 9.7-1.7 18.3-2.1 26.8-.6 12.7 6.4 19.8 13.9 26.2 10.9-35.8 6.9-28.1-11.8-53M397.5 1293.7c-3.4 19.5-8.3 39.7 10.3 53.7 10.1-24.6 9.3-27.8-10.3-53.7"/><path class="st0" d="M427.2 1373.3c13.9-23.4 3.6-37.7-10-51.7-7 24.9-4.1 40.9 10 51.7M437.3 1390.5c-7.1-11.1-14.2-20-28-19.5-5.9.1-11.8-1.1-18.6-.6 6.2 7.7 11.7 16.3 18.9 22.2 8.3 6.6 17.8-1.1 27.7-2.1M417 1365.2c-6.5-11.2-13.2-20.6-26-21.5-6.4-.5-12.8-1.5-19.3-2.7 18 25 13.8 31.2 45.3 24.2M354.8 1312.2c3.2 5.7 6.8 13.1 11.2 19.9 4.2 6.6 10.6 8.1 17.1 7.6 4.2-.3 8.4-.8 12.6-1.4-1.6-15.1-17-23-40.9-26.1"/><path class="st1" d="M940.8 309.2c-314.6 0-569.6 255-569.6 569.6s255 569.6 569.6 569.6 569.6-255 569.6-569.6-255-569.6-569.6-569.6m381.4 898c-52.3 0-220.3-99.2-250.9-98.2-44 1.5-60.5 50.3-117.9 63-23.6 5.2-60.7-56.3-98.6-48.9-9.8 1.9-27.6 18.7-42.5 14.7-17.6-4.7-48.9-43.5-71-42.3-21 1.2-111.6 109.4-111.6 109.4s-42.3 29.6-43.5 30.3c-79.7-89.1-148.7-227.6-148.7-356.5 0-278 225.4-503.4 503.3-503.4 278 0 503.3 225.4 503.3 503.4 0 125.6-45.9 240.4-121.9 328.5"/><g><path class="st3" d="M1268.8 497c-88.1-75.8-202.7-121.6-328.1-121.6-268.9 0-488.6 210.9-502.6 476.3-.4 7.7-.5 15.4-.5 23.2 0 13.7.6 27.3 1.6 40.7 9.8 101.4 58.1 205.3 117.3 283.6 10.1 11.9 20.8 23.4 32 34.3 9.2-6.3 41.1-28.7 41.1-28.7s90.7-108.3 111.6-109.4c22.1-1.2 53.4 37.5 71 42.3 14.9 4 32.7-12.8 42.5-14.7 37.9-7.4 75 54.1 98.6 48.9 57.3-12.7 73.8-61.5 117.9-63 29.3-1 185.2 90.3 244 97.7 78-88.4 125.4-204.5 125.4-331.7.1-150.7-66.4-285.9-171.8-377.9z"/><path class="st1" d="M940.8 375.4c125.3 0 240 45.8 328.1 121.6-88.2-77-203.5-123.6-329.7-123.6-269.2 0-488.9 212.1-501 478.3 14-265.4 233.6-476.3 502.6-476.3"/><path class="st3" d="M940.8 375.4c125.3 0 240 45.8 328.1 121.6-88.2-77-203.5-123.6-329.7-123.6-269.2 0-488.9 212.1-501 478.3 14-265.4 233.6-476.3 502.6-476.3z"/><path class="st1" d="M556.6 1199.3C497.3 1121 449 1017.1 439.2 915.7c8.7 107.8 51.4 205.9 117.4 283.6"/><path class="st3" d="M556.6 1199.3C497.3 1121 449 1017.1 439.2 915.7c8.7 107.8 51.4 205.9 117.4 283.6z"/><path class="st1" d="M953.5 1172c-23.6 5.2-60.7-56.3-98.6-48.9-9.8 1.9-27.6 18.7-42.5 14.7-17.6-4.7-48.9-43.5-71-42.3-21 1.2-111.6 109.4-111.6 109.4s-31.9 22.3-41.1 28.7c90.4 88.4 214.1 142.9 350.6 142.9 149.8 0 284.3-65.7 376.2-169.8-58.8-7.4-214.6-98.7-244-97.7-44.2 1.5-60.7 50.3-118 63"/><path class="st3" d="M953.5 1172c-23.6 5.2-60.7-56.3-98.6-48.9-9.8 1.9-27.6 18.7-42.5 14.7-17.6-4.7-48.9-43.5-71-42.3-21 1.2-111.6 109.4-111.6 109.4s-31.9 22.3-41.1 28.7c90.4 88.4 214.1 142.9 350.6 142.9 149.8 0 284.3-65.7 376.2-169.8-58.8-7.4-214.6-98.7-244-97.7-44.2 1.5-60.7 50.3-118 63z"/></g><g><circle class="st3" cx="939.1" cy="875" r="501.5"/></g></svg>