<svg id="Layer_1" xmlns="http://www.w3.org/2000/svg" viewBox="0 0 1728 1728"><style>.st0{fill:#FFFFFF;} .st1{fill:#00A551;} .st2{fill:#00953A;} .st3{fill:none;} .st4{fill:#231F20;}</style><ellipse class="st0" cx="864" cy="870.3" rx="757.3" ry="758.6"/><path class="st1" d="M708.7 787.3v-.9h-3.1v.5l2.2.4zM671 872.2h.4v1.8h-.4zM751 553.4c1.2-.4 1.8-.9 1.8-1.3l-.9-.9h-.4c-.4 0-.9.6-1.3 1.8l.4.4h.4zM684.5 652.2h3.6v-.4c-1.9 0-3.1-1.8-3.6-5.4l-2.7.4 2.7 3.1v2.3zM746.5 602.4v-18.9c0-3.7-1-7.6-3.1-11.7h-1.8c-5.4.5-8.1 2-8.1 4.5l-.9 6.7.4 19.3h13.5v.1zM689.4 580.4v-.9l.5-.5-.9-.9h-.5v.9l.5 1.4zM704.3 589.4v-.9l-.9-.9-.9.9.4 1.3zM622.4 617.7v.4c0 .7 1 1.1 3.1 1.3v-.4l-.4-1.8-2.7.5zM689 651.8v.4l2.7 2.7v.4l-3.6 4.5 1.3 3.6c6.6-1.8 9.9-3.1 9.9-4-4.8-3.7-7.2-5.8-7.2-6.3 0-1 2.5-3.7 7.6-8.1 0-.9.3-1.3.9-1.3 1.6 2.1 3.1 3.1 4.5 3.1h.4l-.4-.4v-.9l2.7-2.7c-1.8 0-2.7-.3-2.7-.9l.4-1.3c0-1.9-1.8-3.2-5.4-4h-.4l-2.7 1.3v3.1c-1.5 1-2.2 2.4-2.2 4-.5 1.5-1.4 2.2-2.7 2.2l.4.4v.4c.1 2.6-1.1 3.8-3.5 3.8zM661.5 681v-.5h-1.4v1.4h.5zM477.1 841.2l-.9.9.4 3.1c-1.5.7-2.2 1.9-2.2 3.6v.4l.9 2.7c1.5 0 2.5-1 3.1-3.1 3.7-3.6 7.9-5.7 12.6-6.3v-.4l-1.8-.9h-12.1zM476.7 803.1v-.9h-.5l-.9.9zM456 761.7v.4c3 0 4.5 1 4.5 3.1h.9l.4-3.1v-.4l-4.5-.9c.1.6-.4.9-1.3.9zM477.1 760.8c1.9 0 4 1.2 6.3 3.6l4-3.1c.4-1.8 1.2-2.7 2.2-2.7v-.4h-.9l-2.2.4c0-1.4-1.2-2.5-3.6-3.1l-.4-.4v-.4L478 756v3.1c-.4 1.2-1.5 1.8-3.1 1.8l-2.2-.9c-2.7.8-4 1.4-4 1.8v.4c1.5 0 2.2.7 2.2 2.2l.9 1.3c1.5-.4 2.2-.8 2.2-1.3l-.9-2.7 4-.9zM496.5 891.6h.4v3.6h-.4zM636.3 612.7l-.9.9v.5l.9-.9zM628.2 605.5h-.4l-.9 6.3v.9l4 1.3c0-5.6-.9-8.5-2.7-8.5zM504.5 901.9l.4.4h.9l2.2-.4c-.9-1-1.3-2.5-1.3-4.5-1.4 0-2.2 1.5-2.2 4.5zM481.6 865.1l-.4 1.3h.4l1.4-.4-.9-.9zM523.2 1082.6l-5.9-1.4-2.6.9v2.7l.9.9 3.5-.9h3.6zM520 1092c0 2.1 1 3.1 3.1 3.1v-.4l-.4-2.2 2.2-.9-1.3-1.3c-.4 1.1-1.6 1.7-3.6 1.7zM530.4 1109.1c0 3.7-2.5 6-7.6 6.7l-.9-.9h-1.3l.9 1.3-1.8 3.1v1.3l6.3-2.2h.9l2.7.9 2.7-.4.4.4h.4l-.4-3.1v-.4c1.2-4.2 2.5-6.3 4-6.3v-.9l-.4.4-5.9.1zM498 1145v.9l.9.9h.5v-1.3l-.9-.9zM525.4 1104.1h.9c0-.9.4-1.3 1.3-1.3l.4-.4v-.4l-2.2-.4-1.3.4.9 2.1zM538.9 1130.2l1.4-1.3h-1.4zM804.7 903.2v-.4c-.6-1.3-1.2-2.1-1.8-2.2l-.4.4v.4l1.8 1.8h.4zM758.2 555.2v-.4l-.5-.5h-.9v.5l.9.9zM540.7 1097.9c-2.5-1.5-4.5-2.2-5.8-2.2l-2.2 2.7.9.9v.4l-.9 1.3 2.7.4-.4.4v1.3c1 0 2 .4 3.1 1.3.6-1.2 1.3-1.8 2.2-1.8l-.4-2.2v-1.3l.8-1.2zM786.9 616.3v-.4l-1.3-1.8h-.9v.4c.1.6.9 1.2 2.2 1.8zM455.8 1053.4h.4c1.5 0 4.5-2.1 9-6.3l-2.2.4-1.8-.4c-.4 1.2-1.7 1.8-4 1.8l-3.1-.9v.9c1 0 1.8.7 2.2 2.2l-.5 2.3zM484.1 1069.6c.5-1.2 1.6-1.8 3.1-1.8v-.4l-4.5-.4c.4 1.7.8 2.6 1.4 2.6zM807.9 837.7h-1.4v.9h.5zM778.4 575h.4v-.9h.4l-.4-.4v-4h-.9l-.4.4h-.5c.3 3.2.8 4.9 1.4 4.9zM547.4 1001.3v-.4l-3.1-1.3c-1.2.4-1.8.9-1.8 1.3l4 .4h.9zM454.9 1043.5c-.9 0-1.3-.9-1.3-2.7l-1.8 1.3-6.3-.4v-.9h-.5l-.4 1.3 1.3 4-.4.4h2.7c0-1.2.9-1.8 2.7-1.8h.4l2.7.9.9-2.1zM461.6 1071.4l.5.4h1.3l.5-2.2h-.5zM443.7 1077.2l4.5 1.3.9-2.2h-5.4zM456.7 1075.4h-.4c.4 1.2.9 1.8 1.3 1.8h.9v-.9l-1.8-1.8v.9zM451.5 864.6v.5l.5 1.3h.4v-1.3l-.4-.5zM484.6 676.4l2.2-.4h.9c1.7 1.8 2.9 2.7 3.6 2.7v-1.8c-3.3-1.9-4.9-4.1-4.9-6.7l.9-1.8c-.6 0-.9-.6-.9-1.8l-4.5 1.3c.9 1.4 1.3 3.1 1.3 4.9l-1.3 2.2 2.7 1.4zM490.4 690.8v-.4l-1.3-1.3c.4 1.1.9 1.7 1.3 1.7zM499 693.5h-.5l-.9.9.9.9zM477 689.9l-1.8 2.2c1.6 0 2.8.7 3.6 2.2v2.2h1.8c1.6 0 3.1 1 4.5 3.1l.4-.4h.9l2.2.4c0-3.3.9-4.9 2.7-4.9v-.4l-.9-1.8c-.6 0-.9.7-.9 2.2l-.4.4h-2.7c-.9-1.2-2.5-1.8-4.9-1.8l-.5-.3v-.4c1.5-1.3 2.2-2.5 2.2-3.6h-.4l-5.8-1.3v2.2zM513.8 548.4l.9-.9v-.9l-.9.9zM477 654.8c-1.8.2-2.7.6-2.7 1.3h3.1l-.4-1.3zM447.8 582.1h.4v-1.4l-.9.9zM479.7 666.1v-.9l-1.8-.5v.5l.9.9zM521 544.8c-2.5 0-4.6-1.3-6.3-4l-1.8.4v.4l4.9 4.9c1.7.1 2.7-.5 3.2-1.7zM563.1 640.1l-.9.9v.5h.9zM560.8 643.3v1.8l1.8-1.8zM579.7 611.4l-1.8 1.8 1.4.4zM626 607.3v-.9l-2.2.4.4 3.1c1.2-.2 1.8-1.1 1.8-2.6zM623.3 615.4v-1.8h-1.4l-.9.9 1.8 1.4zM584.2 604.2l-.4-.4h-.4l-.9 2.7h.4c.6-.1 1.1-.8 1.3-2.3zM618.3 609.1v-1.3l-.9.9.5.4zM497.6 702.9v-.5h-.4l-.9.9v.5h.4zM424.4 530.8v.9l1.8-1.8h-.9zM444.2 560.5h-.9l-.9.9h.9zM433.4 538.9l-1.4-1.3h-.4l.4 1.3zM462.1 588.3h.4c5.2-7.3 8.2-12.1 9-14.4h-9.9c-4.3 0-8.2 1.3-11.7 4 0 1.5 2.4 4.8 7.2 9.9l5 .5zM512.9 546.1l-.4-4c-2.5 0-4.1 1.6-4.9 4.9v1.3h.9c1.3.1 2.8-.7 4.4-2.2zM457.4 751.4l-.9.9v.9h.9zM439.7 552.9c-3.6 0-5.4-1.6-5.4-4.9-2.4 0-3.6.9-3.6 2.7-.5 2.7-1.4 4-2.7 4v.4h.9l10.8-1.8v-.4zM625.5 604.6l-.4-2.2h-.5v1.8l.9.9zM445.5 551.1v-1.4h-.4l-.9.9.4 1.4zM495.8 556.9v-.9l-1.8 1.3h.5zM494.9 624.7c.8 0 1.7.4 2.7 1.3h.4v-1.8h-3.1v.5zM497.2 553.8l.4-.5v-.4l-.4-.5h-.5l-.4.5v.4l.4.5zM466.2 647.2v.4l1.3.9 1.4-.4v-.9l-2.3-.5zM467.1 642.2l-.5-.4v-.4l-1.3.8.4 1.4zM453.6 565.4c-.9 0-1.3 1.2-1.3 3.6l-.4.4c1.2 0 1.8 1 1.8 3.1 3.8-5.1 8.8-7.6 14.8-7.6l5.8 1.3.9-4-4-3.6-5.4.9M452.2 649.4l9.9-4c0-1-2.8-2-8.5-3.1l-1.4 7.1zM459.9 655.3c-4.1 3-6.7 4.5-7.6 4.5 1.8 2 2.7 3.7 2.7 4.9h2.2l.4.4h.4c3.2-4.1 5.9-6.4 8.1-6.7 0-.4-.6-.9-1.8-1.3 0-.7-1.5-1.1-4.5-1.3l.1-.5zM921.2 989.3l.9.9h1.3v-.4l-1.3-1.4zM835.3 796.3c.5 0 1-.7 1.3-2.2v-.4h-.4c0 .9-1.5 1.3-4.5 1.3l.4 1.3h3.2zM738.6 1146.3l1.8 1.3v-1.3l-.9-.9zM840.2 800.8v-.9l-1.3-.4.4 1.3zM847.5 946.2h-1.3c-2.5.9-4.9 1.3-7.2 1.3v.4l7.2 1.3 1.3-3zM837.5 910l1.4 1.3.4-.4v-1.4h-1.8zM824.1 852.9l1.3 3.6-.9.9v2.7h1.3c0-1.9 1.5-3.1 4.5-3.6l.9.9.4-.4.4.4v.4l1.3-.4c1.3.4 2.2 1.1 2.7 2.2v1.8c-.4 1.2-1.3 1.8-2.7 1.8v.4l.9.9 2.7-.4-.4-3.1v-.4c.2-3.4 2.6-6.9 7.2-10.3v-.9L833 852l-3.1-.9c-3.7.5-5.6 1.1-5.8 1.8zM839.4 1054.5c0 2.1-.6 3.1-1.8 3.1v.9l1.8.4c0-.7.6-1.8 1.8-3.1l-1.8-1.3zM840.3 1112.4v.4l.5.5h1.8v-.9l-1.8-.4zM840.8 1015.4h-.5l-1.8 1.8h2.3zM770 1079.8l-.9.9v1.3h.9l.9-.9-.4-1.3zM757 1125.1l-.9-.9-.9 2.2h-.9l-2.2-1.8v.4c.6 1.8 2.1 3.6 4.5 5.4 0-.5 1.8-1.6 5.4-3.1l-1.3-3.1-3.7.9zM748 1118.4l-1.3-.4-2.7.9c-1.8-.2-2.7-.8-2.7-1.8h-.4c0 .9-.7 1.8-2.2 2.7l-.4-.4h-.4l-.9 2.7 4.5 2.7 7.2-3.1-.4-.4v-2.9h-.3zM738.6 1127.8h-.5v2.7l.9-.9zM766.9 1072.6c-9.3 5-13.9 15-13.9 30.1.7 11.7 3.6 17.5 8.5 17.5 4 0 6.2-5.4 6.7-16.2v-7.2l-1.8-13.9.5-10.3zM798.3 1058.7l-1.8-.4-5.4.4-1.3 6.3.4.4h2.7c2-.2 4-1.3 5.8-3.1l-.4-1.8.4-.4-.4-1.4zM769.6 1102.2l.9-.9v-.4h-.9zM769.1 1060.9h-.4l-.5 2.3v.4h.5l4.9.5v-1.8l-3.6.9zM853.4 1120.5l-.9.9 1.3 1.3 1.4-.9-.5-1.3zM841.1 908.2l1.3 1.3h.9c.1-.6-.7-1.1-2.2-1.3zM933.3 1038.7l-3.1 2.3 1.8 5.8h.4l1.8-1.3-1.3-2.7zM911.8 1067.9l1.3.9h.5l.4-1.8-1.3-.9zM941 1035.1v.5l.9.9h.4l.5-.5h.4l-1.3-1.8zM926.1 1063v.4h.4c0-1.2.4-1.8 1.3-1.8v-.9c-.5.2-1.1.9-1.7 2.3zM925.2 1036.9v.4l2.7-.4-.9-1.3c-1.2.4-1.8.9-1.8 1.3zM854.3 1116v-.5l-.9-.9h-.9v1.4l1.3.4zM853.7 778.4c2.1-.3 3.1-.7 3.1-1.3v-.9l-2.7-1.3c-2.2 2.7-4.2 4-5.8 4v3.1l-.4.4v.4h.9c1.7 0 3.3-1.4 4.9-4.4zM848.3 897.4l-.9-.9v1.3h.9z"/><path class="st2" d="M864 282.9c-173.7 0-329.6 76.3-436 197.2l.4.4v.9h-.4l-.6-.6c-89.6 102.2-143.9 236-143.9 382.6 0 172.1 74.9 326.7 193.9 433 5.3-2.7 150.1-122.7 164.9-126.1 14.4-3.3 24.9 5.4 37.3 11.4 18.3 8.8 36.7 27.4 54.9 32.3 14.8 4 16.4-7.6 29.3-11.1 13-3.5 24.1 6.4 34 11.4 13.4 6.8 23.8 8 37.7 12.3 10.2 3.1 19.4 11.4 29.2 14.6 29.5 9.8 41.4-7.9 62.9-23.5 17.7-12.9 40.1-37.6 64.9-32.4 12.2 2.6 16.9 11.5 29 16.3 10.9 4.3 21.7 6.8 33.5 3.7 11.3-3 16.7-8 28-1 9 5.5 13.8 15.5 21.3 22.3 17.1 15.7 44.2 27.9 66.3 36.3 14.6 5.5 83.9 30.1 85.1 29 116-106.1 188.8-258.8 188.8-428.4 0-320.7-259.9-580.6-580.5-580.6zm111.1 678.6l1.3 1.3v.9l-.9.9h-.9l-.4-.4h-.4c.3-1.8.8-2.7 1.3-2.7zm-6.3-1.8h.4l.9 1.3v.4l-.9.9-.9-2.2.5-.4zM842.5 741.1l.9 2.2 3.1-.4.4 1.3.9 17.5-.4 3.6.4.4 7.6-.4h5.4l.9.9v3.6c-.9 0-1.3.4-1.3 1.3s.4 1.3 1.3 1.3l-1.3 16.6.4 1.3-3.6.9h-9l-.4 12.1v3.6c0 25 .9 54.7 2.7 88.9 1.1.9 2.2 1.3 3.1 1.3h7.6c3.3 0 4.9.4 4.9 1.3v6.3c0 1.6-3.6 3.4-10.8 5.4l-.9-.9c0 2.3-.6 3.7-1.8 4l.4.4v.4c0 2-1.5 4.3-4.5 6.7l-.4 2.7v.9l4.5-1.3-.4-2.2c0-3.1 2.7-6.7 8.1-10.8l4.5-1.8h.9l.4 13.5v1.8l-.9 1.3-25.6.4h-5.4c-16.7 0-27.8-5.7-33.2-17.1-1.2-2.8-1.8-6.2-1.8-10.3v-.8l.9-4.9v-.4l-.9-1.3v-.9l.9-1.8c-1.8-7.7-2.7-15.3-2.7-22.9l.9-29.2-1.8-33.7.4-7.6c-1.4-1.2-2.6-1.8-3.6-1.8l-7.2.4-.4-.4v-9.9c0-10.5.7-15.7 2.2-15.7l2.7-.4 5.4 1.3.9-6.7v-18.4l.4-.4v-.4l8.1.4 37.1-1.2zm-42.1-145.9l.9.9v.9l-1.3 1.3h-.4l-.9-.9c.5-1.3 1.1-2.1 1.7-2.2zm-3.2 19.8H795l-.9-.9v-.4l.9-.9h.4l2.2 1.8-.4.4zm-21.1-95.3l.9-.9 2.2 3.1v.4c-1.6 0-2.6-.6-3.1-1.8v-.8zm-82.6 15.7c1.2.4 1.8 1.5 1.8 3.1v.9l-.4.4v.4c-1.8-.6-2.7-1.8-2.7-3.6l1.3-1.2zm50.3 226.8h-.9l-.9-.9v-.9l.4-2.2h.9l.5 4zm-26.1-.9c7.8 0 16.5 1.6 26.1 4.9 1.1 2.3 4.6 4.4 10.3 6.3 0 1 2.2 3.2 6.7 6.7 5.4 7.1 8.1 18.2 8.1 33.2 0 3.5-.3 5.9-.9 7.2l-23.4.4h-.4c-9.1 0-15.7-.7-19.8-2.2.6-1.3.9-3.7.9-7.2v-4.9c-.7-8.7-1.6-13-2.7-13h-4.9c-3.6 0-5.7 3.4-6.3 10.3 0 10.1 4 16.7 12.1 19.8l2.2 1.8h.4c.9-.3 1.3-1.2 1.3-2.7h.4c.4 0 1.1 2.4 2.2 7.2 8.9 5.3 14.9 8.3 18 9 0 1.3 2.8 2.6 8.5 4 .1 1.5 3 3.7 8.5 6.7 1.8 1.2 4.5 8.2 8.1 21.1 0 4.9.4 10.1 1.3 15.7v1.8c0 2.5-.3 4.5-.9 5.8l.4 1.3c-4.3 12.9-7 19.3-8.1 19.3-8 7.8-12.7 11.7-13.9 11.7l-20.7 4.5-7.2.4h-3.6c-18.8 0-34.7-6.9-47.6-20.7l-3.1-18c-.5 0-1-1.6-1.3-4.9l.4-13-.4-4.9 11.7-.9h2.2c18.6.6 27.9 1.6 27.9 3.1.9 12.4 2.4 21.3 4.5 26.5 1.3 1.5 3.4 2.2 6.3 2.2 2.1 0 4.5-1.9 7.2-5.8l-.4-.4v-2.7c0-1 .4-2 1.3-3.1 0-10.1-3.9-16.1-11.7-18-.7 0-11.2-7.3-31.4-22-13.8-7.7-20.7-18.8-20.7-33.2V811l.9-8.5-.4-.4h-.4c0-12.8 4.3-23.7 13-32.8 11-5.3 24-8 39.3-8zM667.8 839v-.9h2.2v.9h-2.2zm-4-57h-.4v-2.7l.9-.9.9 1.3c-.4 1.5-.9 2.3-1.4 2.3zm.9 2.6c-.6 1.3-1.2 2.1-1.8 2.2l-.4-.4v-.4c.7-1.8 1.3-2.7 1.8-2.7l.4 1.3zm0-19.7l-.9-.9.9-.9.4.4v1.3h-.4v.1zm-65.2-140.5v1.8h-.5l-.9-.9.9-.9h.5zm-92-125.5h.9v1.3l-.9-.9v-.4zm-3.1-18.8h-.4l-.9-.9v-1.3l.9-.9h.4l1.8 1.8m-6.8 24.6h1.3v.4l-.9.9-.9-.9.5-.4zm-20.6 12.2l3.1-.4h1.8c2.2 0 3.4.4 3.6 1.3v.4l-3.1-.4h-5.4v-.9zm-35.1-18.9h.9l4.5.4-.4 2.2h-.4v-.9h-.9v.9h-.4l-3.1-1.3v-1.3h-.2zm-6.7-18l.9.9-.9.9-.9-.9.9-.9zm-2.3 35.5h.9v.4l-.9.9c-1.6 0-2.6-.6-3.1-1.8v-.4l.9-.9h.9c.4 0 .9.6 1.3 1.8zm-5.4-13.5l1.3-1.3c1.8.2 2.7.6 2.7 1.3l-1.3.9h-2.7v-.9zm-3.1 12.6c1-1.8 2.4-2.7 4-2.7v.9c-1.2 1.8-2.4 2.7-3.6 2.7l-.4-.4v-.5zm-1.4-3.6h-.4l-5.8-3.1v-.4l.9-.9m-3.6-1.4l-1.3-1.3.9-.9 1.3 1.3-.9.9zm103.9 400.7l-.9 4 2.2 2.2v1.3c0 1.9-.7 3.7-2.2 5.4l.9.9.9-.9.4.4c0 3.6-1 5.4-3.1 5.4-5.2 1.5-11.7 2.2-19.3 2.2H443c-.9 0-1.3-1.9-1.3-5.8v-4.9l1.8-21.6v-18c0-3.3.4-7.3 1.3-12.1-1.5-5.8-2.4-12-2.7-18.4l1.3-24.7v-18.9l2.2-18.4-2.2-23.4v-.9c0-9.6.7-14.4 2.2-14.4l6.3-.4 18.4.4c5.5 0 12.5-.7 21.1-2.2l1.3 1.8v.4l-1.8 15.7.4 20.2-1.3 23.8v.4l2.7 15.3-.4 1.8-.4 13c0 4.4.9 8.8 2.7 13l-2.2 14.8.4 15.3-.4 3.6 1.3 1.3-1.8 2.2v2.2c3 .9 6.4 1.3 10.3 1.3h3.1l11.2-.4c3 0 4.5 1.3 4.5 4l.4 5.8v3.1c0 .9-.7 1.3-2.2 1.3l.6 2.9zm-31.7 55.3l-.4.4h-3.1l-4.9 1.3v-1.8c.3-.9 1.2-1.3 2.7-1.3h4.5l1.2 1.4zm-41.3 15.8l-1.3 1.3-2.2-4v-.9c2.3 0 3.5 1.2 3.5 3.6zm-7.1-395.9l-.9-3.6v-.9c0-.7.7-1.1 2.2-1.3v.4c0 3.6-.4 5.4-1.3 5.4zm48.9 137.5l.9-.9 1.3.4v1.3h-1.3l-.9-.8zm23.4-58.4v-1.3h2.7v.4l-.9.9H512zm4 8.5l1.3 1.3-1.3 1.3-.9-1.3v-.4l.9-.9zm-.4-103.8v-.4h1.3v1.3h-.4l-.9-.9zm4 92.1v-.4h1.3v1.3h-.4l-.9-.9zm.9-3.1l-.9-.9 4-3.1.9.9v.9l-2.2 2.2h-1.8zm-15.7 9.4l-.9.9h-1.3l-.9-.9.9-.9h1.3l.9.9zm-68.5 71.9l-3.6-1.3.9-.9h2.7l1.3 1.3c0 .6-.4.9-1.3.9zm113.8 405.7h-1.3l-.9-.9c.5-1.5 1.3-2.2 2.2-2.2l1.8.9c-.6 1.3-1.2 2.1-1.8 2.2zm3.2-23.8c-2.7 4.4-4.2 8.2-4.5 11.2-14.2 13.5-22 20.2-23.4 20.2l-.4-.4v-.9l-.4.4h-2.2c-.6 0-1.2-.9-1.8-2.7l-2.2.4h-2.7c-4.5 0-6.7-.9-6.7-2.7-1.8.7-2.7 1.8-2.7 3.1h8.5c2.7 0 4 1.3 4 4h.9v.9c-4.1 1.2-8.8 1.8-13.9 1.8h-11.2c-8.2 0-20.1-2.5-35.5-7.6-5.4-1.1-8.1-2.8-8.1-4.9-6.6-7.9-9.9-14.7-9.9-20.2 0-3.4-.7-6.8-2.2-10.3v-.4l.4.4h.9l5.8-1.3-1.3-2.2h-1.3l-4.5.4-.4-.4v-.4l2.2-53.9-.9-18c1.5-9.2 2.2-15.5 2.2-18.9v-1.8l-.4-.4v-.4c4.3-1 9.4-4.4 15.3-10.3h-1.3c-2.3 2.7-6.7 4-13 4v-.4c0-5.7 1.6-8.5 4.9-8.5 1.8-1 2.7-1.9 2.7-2.7l3.6.4c1.6 0 3.7-1.2 6.3-3.6l-1.8-3.6c-3.7 1.2-6.7 1.8-9 1.8v-.9c5.5-8 11.2-13 17.1-14.8 5.2-2.8 9.3-5.4 12.1-7.6l6.3-.9c5.5.5 10.4 1.6 14.8 3.1l8.1-.9c9.7 1.1 17.3 2.9 22.9 5.4 12.3 7.1 18.4 12.5 18.4 16.2 3 6.2 4.5 10.4 4.5 12.6l-.9 1.8c1.8 0 2.7 2.8 2.7 8.5.9 3.7 1.3 9.8 1.3 18.4v17.1c0 .6-.4.9-1.3.9v.4c.9 0 1.3.3 1.3.9l-.4.4h-.4c-4.9 0-9.2-1.6-13-4.9h-.9l-4 .4c-1.1 0-3.1-1-5.8-3.1-1.4 0-2.8-.6-4-1.8h-.4l-1.3 1.3c0 1.5.7 3 2.2 4.5l3.1-.9 1.3 1.3h6.3v.9h-2.2l-24.7 4c-4.5-.4-6.7-1-6.7-1.8v-.9l.4-.4v-.4l2.7 1.3h.9c2.1 0 4-1.5 5.8-4.5v-.4l-6.7-.4H507l-.4-.4h-.4l.9-21.6c0-16.5-1.5-24.7-4.5-24.7l-3.6-.4c-6.3 0-9.4 7-9.4 21.1l.4 14.8v6.3l-.4 1.8.4.4v.4l-.9 51.2-.4.4h-.4l-2.2-.4c-.3.7-2.2 2-5.8 4l.4.4v.4c-.3 2.4-1.5 3.6-3.6 3.6l-3.6-1.3h-11.7l-5.8.9v.9l13 1.8c2.2-1.2 4.6-1.8 7.2-1.8h7.2l5.4.4v1.8c0 8.2 1.6 13.5 4.9 15.7l5.4 1.8c3.4 0 5.5-4.2 6.3-12.6v-2.7l.9-.9c1.3 1.5 2.5 2.2 3.6 2.2h.4v-.4c-1.4 0-2.3-1.2-2.7-3.6v-.4c2.2-2.4 4.1-3.6 5.8-3.6.4 0 1.2-1.2 2.2-3.6l-.4-.4h-1.3c-1.6 1.2-4.4 1.8-8.5 1.8v-7.6l-.4-4.5c.4-5.1 1-7.6 1.8-7.6l32.8-2.7c3.4 0 6 1.3 7.6 4l3.6-1.8 2.7.9h2.7v1.3c-.7 25.2-1.4 37.8-2.9 37.8zm-59.8-24.7l-.4.4h-.4l-.9-.9.4-.4h.4l.9.9zm11.3 8.6v-1.3h.9v1.3h-.9zm57.9 31c0 2.7-2.8 4.8-8.5 6.3l-.4-.4v-.4c4.3-2.6 6.7-5 7.2-7.2l1.8 1.3-.1.4zm-18.1-211.6c-4.2-6.7-6.3-15.1-6.3-25.2v-10.8c.9-4.2 1.5-12.1 1.8-23.8 1.1-5.1 2.8-7.6 4.9-7.6 0-3.8 7.9-8.6 23.8-14.4 7.3-3.7 15.9-7.3 26.1-10.8l.4-.4v-.4l-.4-1.3c3.3 0 4.9-1.6 4.9-4.9.6-3.6.9-8.1.9-13.5 0-7.6-1.9-12.7-5.8-15.3l-2.7-.9c-3.4 0-5.4 3.6-5.8 10.8v1.3l.9 8.5-.9 2.2 1.8 6.7-.9.9.9 4.9c0 1.3-6.9 2-20.7 2.2h-20.2c-6.3 0-9.4-.4-9.4-1.3v-2.7l.9-2.7c3.5 2.4 7.7 3.6 12.6 3.6 0 .6 1 .9 3.1.9l.9-.9h2.2l.9.9c.7 0 2-.9 4-2.7h1.8c0-.5-1-1.4-3.1-2.7h-1.3c0 1.2-.9 1.8-2.7 1.8h-1.3c-2.4 0-3.6-1.2-3.6-3.6v-.4c0-1.2.9-2.7 2.7-4.5-1.5-.4-2.2-.8-2.2-1.3l.4-1.8-10.3-.4v.4c-1.3 2.4-2.8 3.6-4.5 3.6v-13c1.5-2.1 3-3.1 4.5-3.1 4.7 0 8.9.6 12.6 1.8l1.3-1.8c-.7 0-1.5-1.2-2.2-3.6h-2.7c-.8 0-1.3-.7-1.3-2.2H546l-5.4-.9v-.4c0-4.7 4.6-11.3 13.9-19.8 12.1-7.8 22.8-11.7 32.3-11.7 4.3 1.1 14.7 2 31.4 2.7 6.2 1 11.3 3.3 15.3 6.7.6 1 2.2 1.9 4.9 2.7l9 13 1.8 6.7-.9 12.1h.9v.9l-.4.4 1.8 4-1.3 7.2v3.1c0 5.6.7 10.7 2.2 15.3l-1.8 12.6.4 55.3c-.3 15.6-1.2 23.4-2.7 23.4h-13c-.7 0-1.3-1-1.8-3.1-4.3 0-6.9.9-7.6 2.7l-.9.9h-9l-14.4-.4-.4-.4v-.6c4.1-4.2 8.8-6.3 13.9-6.3 4.3-2.5 6.5-4.1 6.7-4.9h-4.5c-3.7 2.4-7.1 3.6-10.3 3.6-3 0-4.9-2.1-5.8-6.3l-1.3-.9h-1.8v.4c2.4 1 3.6 2.5 3.6 4.5h-.4l-1.3-.4c-1.2 2.1-2.8 3.9-4.9 5.4l.4 1.3c-2.4 0-4.3 1.5-5.8 4.5-3.9.7-5.8 2.4-5.8 4.9l-4.9-1.3-11.2 1.3c-4.8.1-12.2-3.5-22.3-10.7zm88.5 5.4l-.9.9h-4.9v-.9l1.3-1.3h3.1l1.4 1.3zm-7.5 141.7h-.4l-.9-.9.9-.9h.4v1.8zm66.5 47.2l-2.2 26.5.4 4.5-.4.4-5.8-.4-31.9 1.3H641l-.9-.9v-68.3l.4-.4-.4-.4v-.4l.4-.4-.4-2.2-.4-21.6.9-24.3c0-14.4-2.4-21.6-7.2-21.6h-1.3c-4.8 0-7.2 5.1-7.2 15.3l.9 26.1c-3 1.9-4.5 3.2-4.5 4-1.5.4-2.2.8-2.2 1.3.9 1.5 1.8 2.2 2.7 2.2v.4c-1.9 4.5-4.1 6.7-6.7 6.7 0 .6-.6.9-1.8.9l-2.7-1.8-2.2.9-.9-1.8h-.4c-1.2.4-1.8 1.5-1.8 3.1l.9 1.3v1.3c-5.1 2.5-7.6 4.9-7.6 7.2-1.1.9-2.2 1.3-3.1 1.3h-1.3l-.9 3.1h.4c2-.9 4.3-1.3 6.7-1.3l1.3.9 2.2-.9 2.7.4h.9c5.5-1 9.5-2.7 12.1-4.9h3.1l1.3.9 1.3-.9h.4v4.9l-.9 65.1c-.2 2.7-.7 4-1.3 4h-28.3l-20.2-.4-.4-.4v-40.9l-.4-21.1 1.3-.9c.6 0 .9.4.9 1.3l1.3-.9h.9l2.7.9.9-1.3c0-.6-.4-.9-1.3-.9.3-3.3.9-4.9 1.8-4.9h.9l.4.4h.4l1.3-1.8c-1.5-.9-2.2-1.9-2.2-3.1h-2.2l-4 6.3c-1.5 0-2.2.4-2.2 1.3h-.9v-2.7l.4-1.8-.4-2.7-.4-11.2.4-24.7.4-93.4.4-.4h20.2l13-.4c11 .6 17.3 1.3 18.9 2.2l-.4 5.4-.4 31-.4 4h1.8l16.2-6.3 9.9-1.8c15.1 0 26.4 4.8 33.7 14.4 3 4.3 4.5 13.9 4.5 28.8l-.4 21.6c-.9 0-1.9 1-3.1 3.1h-.4c.8 2.2 1.9 4 3.1 5.4v25.6l1.3 35.5v3.3h-.4zm107.6 32h-4.9v-.9l1.3-1.3h3.1l1.3 1.3-.8.9zm18-23.8c-.3 15.6-1.2 23.4-2.7 23.4h-13c-.7 0-1.3-1-1.8-3.1-4.3 0-6.9.9-7.6 2.7l-.9.9h-9l-14.4-.4-.4-.4v-.4c4.1-4.2 8.8-6.3 13.9-6.3 4.3-2.5 6.5-4.1 6.7-4.9H784c-3.7 2.4-7.1 3.6-10.3 3.6-3 0-4.9-2.1-5.8-6.3l-1.3-.9h-1.8v.4c2.4 1 3.6 2.5 3.6 4.5h-.4l-1.3-.4c-1.2 2.1-2.8 3.9-4.9 5.4l.4 1.3c-2.4 0-4.3 1.5-5.8 4.5-3.9.7-5.8 2.4-5.8 4.9l-4.9-1.3-11.2 1.3c-4.6 0-11.9-3.6-22-10.8-4.2-6.7-6.3-15.1-6.3-25.2v-10.8c.9-4.2 1.5-12.1 1.8-23.8 1.1-5.1 2.8-7.6 4.9-7.6 0-3.8 7.9-8.6 23.8-14.4 7.3-3.7 15.9-7.3 26.1-10.8l.4-.4v-.4l-.4-1.3c3.3 0 4.9-1.6 4.9-4.9.6-3.6.9-8.1.9-13.5 0-7.6-1.9-12.7-5.8-15.3l-2.7-.9c-3.4 0-5.4 3.6-5.8 10.8v1.3l.9 8.5-.9 2.2 1.8 6.7-.9.9.9 4.9c0 1.3-6.9 2-20.7 2.2h-20.2c-6.3 0-9.4-.4-9.4-1.3v-2.7l.9-2.7c3.5 2.4 7.7 3.6 12.6 3.6 0 .6 1 .9 3.1.9l.9-.9h2.2l.9.9c.7 0 2-.9 4-2.7h1.8c0-.5-1-1.4-3.1-2.7h-1.3c0 1.2-.9 1.8-2.7 1.8h-1.3c-2.4 0-3.6-1.2-3.6-3.6v-.4c0-1.2.9-2.7 2.7-4.5-1.5-.4-2.2-.8-2.2-1.3l.4-1.8-10.3-.4v.4c-1.3 2.4-2.8 3.6-4.5 3.6v-13c1.5-2.1 3-3.1 4.5-3.1 4.7 0 8.9.6 12.6 1.8l1.3-1.8c-.7 0-1.5-1.2-2.2-3.6h-2.7c-.8 0-1.3-.7-1.3-2.2H714l-5.4-.9v-.4c0-4.7 4.6-11.3 13.9-19.8 12.1-7.8 22.8-11.7 32.3-11.7 4.3 1.1 14.7 2 31.4 2.7 6.2 1 11.3 3.3 15.3 6.7.6 1 2.2 1.9 4.9 2.7l9 13 1.8 6.7-.9 12.1h.9v.9l-.4.4 1.8 4-1.3 7.2v3.1c0 5.6.7 10.7 2.2 15.3l-1.8 12.6v55.2zm16.3-153v-24.3l.9-.9c3.9 1.2 7.6 1.8 11.2 1.8h26.5c7.5 0 11.2.6 11.2 1.8v12.6l.4 9.4c-.3 2.4-1.5 3.6-3.6 3.6h-.4l-8.5-1.3-6.7 1.3-20.7-3.6-7.6.9c-1.8-.2-2.7-.7-2.7-1.3zm17.1 175.2c-2.4-.2-3.6-.7-3.6-1.3l.4-.4v-.4l3.1 1.3.1.8zm14.4 5l-.4.4h-.4l-.4-.4v-.4l.4-.4h.4l.4.4v.4zm11.7 1.3l-.9.9h-.4l-.9-.9 2.2-.9v.9zm10.8-7.2l-.9.9h-4l-16.6 1.3-12.1-.9-.4-.4v-.9c.9 0 1.3-.3 1.3-.9 0-1-.7-2.8-2.2-5.4-2 1.2-3.8 1.8-5.4 1.8l-2.2-1.8c0 2.1-1 3.1-3.1 3.1h-.9c-3-1.6-4.5-3.1-4.5-4.5-.9 0-1.5-2.2-1.8-6.7l.4-12.6.9-.9c-.7 0-1.2-.6-1.3-1.8l.4-91.6-.9-30.5.9-8.5-.9-.9v-.4l1.3-1.3h16.6l2.2.4 2.7-.4h10.8c11.4 0 17.1.6 17.1 1.8v14.4l-.4 9.9.4 13v47.6l2.7 68.3-.1 7.9zm91.6-115l-14.8 3.1c-6.3 2-9.4 4.3-9.4 6.7-3.9 0-5.8 8.4-5.8 25.2v4c-1.2 0-1.8.3-1.8.9 1.5.4 2.2 1.5 2.2 3.1v6.3l-.4.4v.4l-.4-.4h-3.1l-1.3.9-1.8-.4-.9.9h-4.5l-1.8-1.8v-2.2l1.3-1.3h3.1l.9-2.2h-4.5c-3.9 0-5.8.4-5.8 1.3v4l-.4.4c-1 .5-1.9 2-2.7 4.5-1.6 1.5-3.4 2.2-5.4 2.2H921c-4.5 0-6.7-.7-6.7-2.2h-.4c-.6 0-.9 1-.9 3.1-2.1.8-3.4 2.5-4 4.9h3.6c1.6-1.2 2.9-1.8 4-1.8h.4c2.4.4 3.6 1.3 3.6 2.7l-1.3 2.7h4c0 .9.3 1.3.9 1.3.8-.7 3.8-1.4 9-2.2l-1.3-6.3c.1-.7 2.9-2.6 8.5-5.8h.9v3.6c1.5 2.4 3 3.7 4.5 4l.4.4.4-.4v-.4c-2.1-.7-3.1-2.5-3.1-5.4l4-1.8c2.1.5 3.1 1.1 3.1 1.8v2.7c0 1-.4 2-1.3 3.1 1.2 0 1.8 1.3 1.8 4v.4c0 12.2.6 27.3 1.8 45.4-12.1 2.1-23.2 3.1-33.2 3.1H904l-.4-.4h-.4c-.9-47.2-1.9-77.9-3.1-92.1l4-29.2-.9-6.3.9-26.1-.4-4.5c0-1.3.6-2.8 1.8-4.5l48.1-1.8.4.4v.4l-1.8 15.3 7.2-11.2c1.3-1.2 2.7-1.8 4-1.8 0-1.9 1.5-2.9 4.5-3.1 1.5-2.2 5.5-4 12.1-5.4h.4l.9 1.8-1.8 40.4v10.3l.1 4.9zm2.7-61.9c-2.4-.4-3.6-1-3.6-1.8l1.3-1.3c1.6.5 2.8 1.3 3.6 2.2l-1.3.9z"/><path class="st1" d="M860.6 1037.4h-.4c-4.2 0-6.3.7-6.3 2.2.5.6 3.5 1.2 9 1.8l.4-1.3c-.1-1.8-1-2.7-2.7-2.7zM870 1124.1l-.5.4v.5l2.3 1.3v-.9l.4-.4-.4-.5zM832.1 900.1l1.4 1.3v-.4l-.9-.9zM852 1048.2v.9l1.3-.4 2.2 1.3c.6-1.2 1.5-1.8 2.7-1.8v-3.1l-1.8-1.3c.1 1.1-1.4 2.6-4.4 4.4zM912.2 979c-.6 0-.9.4-.9 1.3v.4h.4l.5-1.7zM908.6 1067.5v.4l.9.9h.5v-.4l-.9-.9zM918.9 1098.9v-.9l-.8-.9h-.9v.9l.9.9zM905.9 1037.4l1.8-1.4h-2.2zM650.3 1050c1.2-.3 1.8-1.2 1.8-2.7v-.9l-2.2.4.4 3.2zM569.8 888.1l.4-1.8-.4-.5h-.5l-.9 1.4.9.9zM571.1 926.3l1.8 1.3v-1.3l-.9-.9zM551.8 846.3v.9l1.8-1.8h-.9zM550.9 851.2v.5l.5 1.3h.4v-1.3l-.4-.5zM571.1 907.8h-.4v2.7l.9-.9zM580.6 901.1v-2.7l-1.3-.4-2.7.9c-1.8-.2-2.7-.8-2.7-1.8h-.4c0 .9-.7 1.8-2.2 2.7l-.4-.4h-.4l-.9 2.7 4.5 2.7 7.2-3.1-.7-.6zM818.7 829.1v.4l2.7-.9c1 0 2 .4 3.1 1.3h1.3l.9-.9v-.4c-1.2 0-2.4-1.2-3.6-3.6l-6.7-.4h-.4v2.7c0 .5.9 1.1 2.7 1.8zM817.3 795v-.9H816v.4l.9.9zM816 829.1v-.9h-.5l-.9.9zM594.1 900.2c4 0 6.2-5.4 6.7-16.2v-7.2l-1.8-13.9.4-10.3c-9.3 5-13.9 15-13.9 30.1.8 11.7 3.6 17.5 8.6 17.5zM602.1 882.2l.9-.9v-.4h-.9zM573.8 798.2l.9.9h.5l-1.4-1.3zM590.5 763.2h.9v-.5l-.9-.9zM625.5 845.4c2-.2 4-1.3 5.8-3.1l-.4-1.8.4-.4-.4-1.3-1.8-.4-5.4.4-1.3 6.3.4.4h2.7v-.1zM606.2 844.1v-1.8l-3.6.9-.9-2.3h-.5l-.4 2.3v.4h.4zM602.6 859.8l-.9.9v1.3h.9l.9-.9-.5-1.3zM587 1085.1l1.8-1.8H587zM589.1 910.5c0-.5 1.8-1.6 5.4-3.1l-1.3-3.1-3.6.9-.9-.9-.9 2.2h-.9l-2.2-1.8v.4c.5 1.8 2 3.6 4.4 5.4zM757.9 983.2h.9v-.5l-.9-.9zM826.3 836.8l-1.3-.9h-.4c0 .4.6.9 1.8 1.3l-.1-.4zM824.5 784.6v2.7l.4 3.1h.4c.2-3.3 1.4-4.9 3.6-4.9l-.4-.4v-1.3l.4-.4v-.4l-4.9-1.3h-.4v.4l1.3.4-.4 2.1zM741.3 1018.2l.9.9h.4l-1.3-1.3zM686.3 1121.9h.4l.9-.9v-.5h-1.3zM719.3 1066.3v.9l1.8-1.8h-.9zM661.5 1054.1l.9-.9v-.5l-.9.9zM718.4 1071.2v.5l.4 1.3h.5v-1.3l-.5-.5zM737.2 1108.1l.5-1.8-.5-.5h-.4l-.9 1.4.9.9zM649.4 1055.4v-1.8h-1.3l-.9.9 1.8 1.4zM651.7 1044.6l-.5-2.2h-.4v1.8l.9.9zM609.4 1043.7l-.9 2.7h.4c.7 0 1.1-.7 1.3-2.2l-.4-.4-.4-.1zM654.4 1045.5h-.4l-.9 6.3v.9l4 1.3c0-5.6-.9-8.5-2.7-8.5zM644 1049.1h.5v-1.3l-.9.9zM605.4 1053.6l.4-2.2-1.8 1.8zM588.3 1081.5h.9v-1.4l-.9.9zM815.1 751.9v-.9h-.9l-.9 1.8h.9zM648.5 1057.7v.4c0 .7 1 1.1 3.1 1.3v-.4l-.4-1.8-2.7.5z"/><g><path class="st2" d="M775.7 1308.9c-15.5-3.5-31-7-48.1-10.8 7.2 6 14.2 11.9 22.2 18.5-19.7 12.4-29.1-8.8-39.3-9.8-5.9-9.9-10.1-17.1-14.4-24.2-12.5-20.8-25-41.5-37.6-62.2 1.8-1.7 3.5-3.3 5.3-5 18.4 11 37.9 20.5 54.8 33.4 20.2 15.6 38.2 34.1 57.1 51.4.9.8 1.3 2.3 1.9 3.5-.6 1.7-1.3 3.5-1.9 5.2M1087.2 1339.5c-9.4-8.2-18.6-16.5-28-24.7-6.4-5.6-13.2-10.9-19.5-16.7-6.4-5.8-14-11.1-18.3-18.2-11.8-19.6-22.1-40.1-33-60.2 1.6-1.5 3.1-3 4.7-4.5 8.6 6.6 17.8 12.7 25.7 20.1 14.4 13.5 28.6 27.3 41.8 42 9.9 11.1 22.3 17.6 34.8 24.7 5 2.8 8 9.2 12 13.9-.8 1.1-1.6 2.1-2.3 3.1-4.4-.4-8.9-.9-14.9-1.4 4.2 15.3 17.3 12.3 28.2 15.1-4.7 3.9-8.2 6.8-11.6 9.8l-19.6-3zM909.6 1333.5c-6.5-3.7-10.8-6.2-15.1-8.6-11.3-6.2-23.1-11.5-33.8-18.5-10.4-6.9-18.7-17.4-32.6-18.3-.8 0-2.3-2.1-2.2-3.1 2.8-17.9-13.6-15.1-22.8-20.3l12 16.8c-.4 1.1-.8 2.3-1.1 3.4-5.4-1.5-12.8-1.2-15.8-4.7-10.6-12.5-19.8-26.2-29.4-39.6-1-1.3-1.2-3.2-1.8-4.8.8-1.2 1.6-2.3 2.4-3.4 11.1 6.7 23.1 12.4 33.1 20.5 8.5 6.8 16.8 10 27.6 10.5 6.9.3 13.9 3.8 20.3 6.8 9.7 4.5 19.3 9.5 28.5 15 7 4.2 13.4 9.6 21.2 15.4-12.4 12.8 6.2 19.2 9.5 32.9M620.7 1336.2c-23.4-20.8-44.6-39.7-65.9-58.6.4-.9.9-1.7 1.3-2.6 3.2.8 6.7 1 9.4 2.5 10.8 5.8 20.7 13.6 32.1 17.8 18.4 6.8 19.6 22.2 23.1 40.9M1016.1 1347.6c-22.5 4.3-79.9-23.3-88.3-50.8 6.2 5.1 12 10.8 18.8 15.2 8.6 5.6 17.9 10.3 27.1 15 12.9 6.5 26 12.7 42.4 20.6M555 1324.2c-4.5-4.3-9.1-8.7-13.9-13.2.2-4 .7-8.5.5-12.9-.2-3.1-1.3-6.2-2.6-11.9 18.1 12.1 22.7 24.8 16 38M1103.4 1270.3c-9.4-8.6-21.5-19.7-34.8-31.8 15.9-1.2 34.7 20.3 34.8 31.8M967.6 1284.6c-12.9-7.4-25.8-14.7-38.7-22.1l2.8-4.6c11.7 9.4 30.6 7.4 35.9 26.7"/></g><g><path class="st0" d="M455.7 504.1h.4l.8.8v.4l-.8.8h-.4l-.8-.8v-.4l.8-.8zm12.5-5.5h.4v.8l-.8.8h-.8v-.4l1.2-1.2zm2.7 24.7l1.2 1.2-.8.8-1.2-1.2.8-.8zm.4-17.2h.4l.8.8-.8.8h-.4l-.8-.8.8-.8zm18.8 30h.8l5.9 2.7h3.1c.5 0 .8-.4.8-1.2l.4-.4h.4l3.9 2.3h3.1c1.8 0 3.6-.8 5.5-2.3h.4l-.4 2v.4c.1.8 1 1.2 2.7 1.2l23.4-2 .8.8h.8l1.6-.8c9.4 1.3 15.7 2 18.8 2h5.9l.4.4h.4c-.5 1.2-.8 2.9-.8 5.1v.4c0 3.3.8 5.7 2.3 7h.4l1.6-3.1h.4l.8.8v.4c0 1.8-1.2 2.7-3.5 2.7v1.2c0 .8 1.6 1.4 4.7 2l.4.4v.8l-.8.8h-.4l-3.1-.8h-.8v.4l-1.2 10.2c0 1.3.8 2 2.3 2v.8l-1.2 1.2h-.4l-5.5-.8-18 1.2h-2.7v33.2l-.4 17.6 1.2 8.6c-1 0-1.6.5-1.6 1.6l-1.6 1.2h-2.3l-1.2-1.2v-2c1-1.2 1.6-2.1 1.6-2.7h-.4l-5.9.8-.8-4.7h-.4c-4.5-.3-8-.9-10.5-2l.8-2.3h-3.5l-2.7-.4c-.6 1.2-4 2.5-10.2 3.9v1.6l12.1-1.2c3.3 0 5.9.7 7.8 2l1.6-.8.4.4v2.7c1.3 0 2 1 2 3.1 0 .6-.8 1.8-2.3 3.5h5.1c2.6 3.2 3.9 5.7 3.9 7.4v2c-.1.7-1 1.3-2.7 2 .3 1.3.7 2 1.2 2 .3-.8 1-1.2 2.3-1.2h1.6c.5 0 1.2 1.3 2 3.9l3.9-1.2.4.4-1.2 14.5c2.9 1.1 4.4 1.9 4.7 2.3v3.9c1.8.3 2.7.7 2.7 1.2l-.8.8h-3.9l-.8 5.1.4 15.2c0 3.4-1.2 5.1-3.5 5.1l-7 2-2-.8-2.3.8-6.6-1.6h-2.3l-14.8 1.2c-2.6 0-3.9-.8-3.9-2.3-.7-1-1.2-5.4-1.6-13.3l.4-25.4-.4-12.5 1.2-13.7-1.2-17.6.8-2.3c0-2.1-2.1-4.9-6.2-8.6l1.6-1.2 3.1.8v-2c0-5.1-1.2-8.2-3.5-9.4l-1.2-1.2v-.4l1.6-2v-.8l-.4-.4v-.4l.4-.4h1.2l.4.4h.4v-.8l-.8-2.7.8-.8v-.8c0-.6-.5-1-1.6-1.2l-1.2.4v-.4c0-.5.4-.8 1.2-.8v-1.6c0-.4-1.2-1.2-3.5-2.3v-.8h-2c-.3 1.8-.8 2.7-1.6 2.7l-1.2-1.6.4-4.7h-10.2c-3.6-.3-5.5-.8-5.5-1.6s1-1.2 3.1-1.2v-.4c-1 0-2-.6-2.7-2l.4-4.7-2-23.8.4-.4h10.5c1.9.1 3.9-1.1 5.6-3.5zm-15.7-9.7c3.4 0 5.1 1.2 5.1 3.5l-.4.4h-.4l-5.1-2.7v-.4l.8-.8zm4.3 22.2v.8l1.6-1.6h-.8l-.8.8zm5.1-17.5v.8c-1 1.6-2.1 2.3-3.1 2.3l-.4-.4v-.4c.9-1.5 2.1-2.3 3.5-2.3zm-3.1-26.6l.4-.4h.4m.4 65.3v.4h.8l9.4-1.6v-.4c-3.1 0-4.7-1.4-4.7-4.3-2.1 0-3.1.8-3.1 2.3-.6 2.4-1.3 3.6-2.4 3.6zm2.3-48.1c1.6.1 2.3.5 2.3 1.2l-1.2.8H483v-.8l1.2-1.2zm1.6 11.3h.8c.4 0 .8.5 1.2 1.6h.8v.4l-.8.8c-1.4 0-2.3-.5-2.7-1.6v-.4l.7-.8zm-.8 21.9l.4 1.2h1.2l-1.2-1.2h-.4zm8.2 31.6v.4c0 3.1-.4 4.7-1.2 4.7l-.8-3.1v-.8c0-.6.7-1 2-1.2zm-.4 10.2c3.6 1.8 5.5 3.6 5.5 5.5v.4h-.8c-3.4-2-5.1-3.8-5.1-5.5l.4-.4zm1.6-21.1h.8l.8-.8h-.8l-.8.8zm1.5-9.4l.4 1.2.8-.8V565h-.4l-.8.8zm2.8 27l.4.4h.4V592l-.8.8zm2.3-3.1c0 1.3 2.1 4.2 6.2 8.6l4.3.4h.4c4.6-6.4 7.2-10.5 7.8-12.5h-8.6c-3.7-.1-7.1 1.1-10.1 3.5zm13.7-16.1h-5.9c-1 .3-2.5 2-4.7 5.1-.8 0-1.2 1-1.2 3.1l-.4.4c1 0 1.6.9 1.6 2.7 3.3-4.4 7.6-6.6 12.9-6.6l5.1 1.2.8-3.5-3.5-3.1-4.7.7zm-10.6 71.9l-1.2 6.2 8.6-3.5c0-.8-2.4-1.7-7.4-2.7zm-1.1 15.3c1.6 1.8 2.3 3.2 2.3 4.3h2l.4.4h.4c2.8-3.6 5.1-5.5 7-5.9 0-.4-.5-.8-1.6-1.2 0-.6-1.3-1-3.9-1.2v-.4c-3.6 2.7-5.8 4-6.6 4zm11.3-15.3l.4 1.2 1.2-1.2-.4-.4v-.4l-1.2.8zm1.2 3.9l-.4.4v.4l1.2.8 1.2-.4v-.8l-2-.4zm6.6 8.2h2.7l-.4-1.2c-1.5.2-2.3.6-2.3 1.2zm2.3 27.4v2l-1.6 2c1.4 0 2.5.7 3.1 2v2h1.6c1.4 0 2.7.9 3.9 2.7l.4-.4h.8l2 .4c0-2.9.8-4.3 2.3-4.3v-.4l-.8-1.6c-.5 0-.8.7-.8 2l-.4.4h-2.3c-.8-1-2.2-1.6-4.3-1.6l-.4-.4v-.4c1.3-1.2 2-2.2 2-3.1h-.4l-5.1-1.3zm.8-19.9v.4l.8.8h.8v-.8l-1.6-.4zm3.5-130.1h1.6c2 0 3 .4 3.1 1.2v.4l-2.7-.4H526v-.8l2.7-.4zm0 132.8c.8 1.2 1.2 2.7 1.2 4.3l-1.2 2 2.3 1.2 2-.4h.8c1.5 1.6 2.5 2.3 3.1 2.3v-1.6c-2.9-1.6-4.3-3.6-4.3-5.9l.8-1.6c-.5 0-.8-.5-.8-1.6l-3.9 1.3zm6.7 42.2l1.2.4v1.2h-1.2l-.8-.8.8-.8zm-.4-23.9c.4 1 .8 1.6 1.2 1.6v-.4l-1.2-1.2zm4.3-114.4h.4l1.2-.4v-.8l-1.6 1.2zm.8 58.2v.4c.7 0 1.5.4 2.3 1.2h.4v-1.6h-2.7zm1.5-62.5l-.4.4v.4l.4.4h.4l.4-.4v-.4l-.4-.4h-.4zm-.4 131.2v.4h.4l.8-.8v-.4h-.4l-.8.8zm1.2-7.8l.8.8.4-1.6h-.4l-.8.8zm2.7-166v.4l-.8.8-.8-.8.4-.4h1.2zm1.6 137.1h1.2l.8.8-.8.8h-1.2l-.8-.8.8-.8zm4.3-141h.8v1.2l-.8-.8v-.4zm0 41.8v1.2h.8c1.2 0 2.5-.6 3.9-2l-.4-3.5c-2.2 0-3.6 1.4-4.3 4.3zm3.9 96.1h2.3v.4l-.8.8h-1.6l.1-1.2zm.8-138.3h1.2v-.8h-.4l-.8.8zm0 37.1v.4l4.3 4.3c1.4 0 2.3-.5 2.7-1.6-2.2 0-4-1.2-5.5-3.5l-1.5.4zm.8 5.5v.8l.8-.8v-.8l-.8.8zm1.9 104.3l1.2 1.2-1.2 1.2-.8-1.2v-.4l.8-.8zm-.4-90.6h1.2v1.2h-.4l-.8-.8v-.4zm7.1 74.2l.8.8v.8l-2 2h-1.6l-.8-.8 3.6-2.8zm-3.6 5.9h1.2v1.2h-.4l-.8-.8v-.4zM604.4 523.4l11.3-.4c9.6.5 15 1.2 16.4 2l-.4 4.7-.4 27-.4 3.5h1.6l14.1-5.5 8.6-1.6c13.1 0 22.9 4.2 29.3 12.5 2.6 3.7 3.9 12 3.9 25l-.4 18.8c-.8 0-1.7.9-2.7 2.7h-.4c.7 2 1.6 3.5 2.7 4.7V639l1.2 30.9v2.7l-2 23 .4 3.9-.4.4-5.1-.4-27.7 1.2h-9.8l-.8-.8v-59.4l.4-.4-.4-.4v-.4l.4-.4-.4-2-.4-18.8.8-21.1c0-12.5-2.1-18.8-6.2-18.8h-1.2c-4.2 0-6.2 4.4-6.2 13.3l.8 22.7c-2.6 1.6-3.9 2.8-3.9 3.5-1.3.3-2 .7-2 1.2.8 1.3 1.6 2 2.3 2v.4c-1.6 3.9-3.6 5.9-5.9 5.9 0 .5-.5.8-1.6.8l-2.3-1.6-2 .8-.8-1.6h-.4c-1 .4-1.6 1.3-1.6 2.7l.8 1.2v1.2c-4.4 2.1-6.6 4.2-6.6 6.2-1 .8-1.9 1.2-2.7 1.2h-1.2l-.8 2.7h.4c1.8-.8 3.7-1.2 5.9-1.2l1.2.8 2-.8 2.3.4h.8c4.8-.9 8.3-2.3 10.5-4.3h2.7l1.2.8 1.2-.8h.4v4.3l-.8 56.6c-.2 2.3-.6 3.5-1.2 3.5h-24.6l-17.6-.4-.4-.4V664l-.4-18.4 1.2-.8c.5 0 .8.4.8 1.2l1.2-.8h.8l2.3.8.8-1.2c0-.5-.4-.8-1.2-.8.3-2.9.8-4.3 1.6-4.3h.8l.4.4h.4l1.2-1.6c-1.3-.8-2-1.7-2-2.7h-2l-3.5 5.5c-1.3 0-2 .4-2 1.2h-.8v-2.3l.4-1.6-.4-2.3-.4-9.8.4-21.5.4-81.2.4-.4h17.7zm-7 123v1.6l1.6-1.6h-1.6zm1.2-2v.4h.8v-1.2l-.8.8zm13.6-24.2l1.2.4.4-2-1.6 1.6zm4.7-8.2l-.8 2.3h.4c.6 0 1-.6 1.2-2l-.4-.4h-.4v.1zm13.7 18h.4v1.6h-.4l-.8-.8.8-.8zm16-13.7l.4.4h.4v-1.2l-.8.8zm3.1 5.1l1.6 1.2.4-.4v-1.6h-1.2l-.8.8zm1.2 2.7v.4c0 .6.9 1 2.7 1.2v-.4l-.4-1.6-2.3.4zm1.2-9.3l.4 2.7c1-.3 1.6-1 1.6-2.3v-.8l-2 .4zm.8-3.9v1.6l.8.8v-.4l-.4-2h-.4zm2.7 2.7l-.8 5.5v.8l3.5 1.2c0-4.9-.8-7.4-2.3-7.4l-.4-.1zm6.6 7v.4l.8-.8v-.4l-.8.8zm21.5 58.2v1.2h.4l.8-.8v-.4h-1.2zM749.4 558.9h3.5c16.9.8 26.4 3 28.5 6.6 3.4 1.1 5.1 1.9 5.1 2.3 1.2 2.5 3.8 5.7 7.8 9.4 4.2 11.3 6.2 18.2 6.2 20.7l-1.2 6.6 2 2.7v1.2l-2.7 2.7.4 7-.4 16-.4.4h-.4l-9 .4-12.5-.8v-.4l.8-2.7h-.4c-2.4 2.3-5.7 3.5-9.8 3.5l-4.7.4-.8-1.2-14.8 1.6c0 1.2-1.2 2.2-3.5 3.1 0 .7-.7 1.8-2 3.1v.8c1.7 0 3.1.8 4.3 2.3v.8c0 2.2-1.8 4-5.5 5.5-.8 1.8-2 2.7-3.5 2.7l-3.1-1.6-.8.8v.4c0 1 1.6 1.6 4.7 2l2 7.4c2-1 3.9-1.6 5.9-1.6v.4c-.5 1.2-.8 2.9-.8 5.1v1.6c0 7.3 2.2 10.9 6.6 10.9 4.9-1 7.4-3.3 7.4-7 .8-2.1 1.2-4.8 1.2-8.2v-3.1l.8-.8h.8c0 1.8 1.2 3.1 3.5 3.9l1.2-1.6-.8-1.2v-.4c0-2.3.8-3.5 2.3-3.5l6.2.8c0-.7.6-1.1 2-1.2v-.8c0-2-.9-3.4-2.7-4.3l-3.5 2-5.9-1.6v.8l.4 2-2 .4.4 2.7v.8h-.4c-1.2-.5-2.1-1.2-2.7-2.3v-5.1l-.4-2c.6-.5 1.5-.8 2.7-.8l.4-2-2.3-2v-.4c0-.5 2.6-1 7.8-1.6 0 .4.5.8 1.6 1.2l2.3-.8c1.5 0 2.8.7 3.9 2l-.4.4v.4c4 1.8 6.7 2.7 8.2 2.7l.4.4v.4l-3.5 3.5v.4h1.2c2.6 0 3.9 1.2 3.9 3.5l2-.4h1.2l1.2-3.1-.8-2.3.8-3.5v-.4c0-1.6-1-2.3-3.1-2.3l-.4-.4v-.4c1.4-.5 4.1-.8 8.2-.8h3.5l1.2.8-.4 4.7v17.2c0 12.2-5.5 22.4-16.4 30.5-11.7 5.7-21.6 8.6-29.7 8.6-6.6 0-17.5-2.1-32.8-6.2-2-1-3.1-2.1-3.1-3.1-1.4 0-5.5-4-12.1-12.1l.4-1.6-3.1-10.2v-.6l.8-.8h1.2l4.3 3.1 3.1-2.3c-2.1 0-3.9-.6-5.5-2l-.4.4h-3.1l-.4-.4h-.5l.4-6.6v-13.7c0-3.3.8-7.7 2.3-13.3l-.4-.4v-7.8c1.3 0 2-.6 2-2 0-1 .8-1.6 2.3-1.6v-.4c-2.9 0-4.3-.5-4.3-1.6l-.4-7v-4.3c0-12 3.6-24.5 10.9-37.5 8.4-6.4 15-10 19.9-10.9 2.5-2 7.7-3 15.7-3zm-46.8 90.6l2.3 2.7v2h3.1v-.4c-1.6 0-2.7-1.6-3.1-4.7l-2.3.4zm13.2-7.8v2.7c-1.3.9-2 2.1-2 3.5-.5 1.3-1.2 2-2.3 2l.4.4v.4c0 2.1-1 3.1-3.1 3.1v.4l2.3 2.3v.4l-3.1 3.9 1.2 3.1c5.7-1.6 8.6-2.7 8.6-3.5-4.2-3.2-6.2-5-6.2-5.5 0-.8 2.2-3.2 6.6-7 0-.8.3-1.2.8-1.2 1.4 1.8 2.7 2.7 3.9 2.7h.4l-.4-.4v-.8l2.3-2.3c-1.6 0-2.3-.3-2.3-.8l.4-1.2c0-1.6-1.6-2.8-4.7-3.5h-.4l-2.4 1.3zm-7.4-51.9v.8l.4 1.2h.4v-.8l.4-.4-.8-.8h-.4zm4.3-37.1c1 .4 1.6 1.3 1.6 2.7v.8l-.4.4v.4c-1.6-.5-2.3-1.6-2.3-3.1l1.1-1.2zm8.6 45.3l-.8.8.4 1.2 1.2-.4v-.8l-.8-.8zm25.4-3.9l.4 16.8h11.7v-16.4c0-3.2-.9-6.6-2.7-10.2h-1.6c-4.7.5-7 1.8-7 3.9l-.8 5.9zm15.2-26.2l.4.4h.4c1-.4 1.6-.8 1.6-1.2l-.8-.8h-.4c-.4 0-.8.5-1.2 1.6zm5.9 1.2v.4l.8.8.4-.4v-.4l-.4-.4h-.8zm17.6 13.6c.3 2.9.6 4.3 1.2 4.3h.4v-.8h.4l-.4-.4v-3.5h-.8l-.4.4h-.4zM792 621v.4c.1.5.8 1 2 1.6v-.4l-1.2-1.6h-.8zm9-1.2h.4l2 1.6-.4.4h-2l-.8-.8v-.4l.8-.8zm4.7-15.2l.8.8v.8l-1.2 1.2h-.4l-.8-.8c.5-1.2 1.1-1.9 1.6-2z"/></g><path class="st2" d="M775.7 1308.9c-15.5-3.5-31-7-48.1-10.8 7.2 6 14.2 11.9 22.2 18.5-19.7 12.4-29.1-8.8-39.3-9.8-5.9-9.9-10.1-17.1-14.4-24.2-12.5-20.8-25-41.5-37.6-62.2 1.8-1.7 3.5-3.3 5.3-5 18.4 11 37.9 20.5 54.8 33.4 20.2 15.6 38.2 34.1 57.1 51.4.9.8 1.3 2.3 1.9 3.5-.6 1.7-1.3 3.5-1.9 5.2M1087.2 1339.5c-9.4-8.2-18.6-16.5-28-24.7-6.4-5.6-13.2-10.9-19.5-16.7-6.4-5.8-14-11.1-18.3-18.2-11.8-19.6-22.1-40.1-33-60.2 1.6-1.5 3.1-3 4.7-4.5 8.6 6.6 17.8 12.7 25.7 20.1 14.4 13.5 28.6 27.3 41.8 42 9.9 11.1 22.3 17.6 34.8 24.7 5 2.8 8 9.2 12 13.9-.8 1.1-1.6 2.1-2.3 3.1-4.4-.4-8.9-.9-14.9-1.4 4.2 15.3 17.3 12.3 28.2 15.1-4.7 3.9-8.2 6.8-11.6 9.8l-19.6-3zM860.7 1306.3c-10.4-6.9-18.7-17.4-32.6-18.3M620.7 1336.2c-23.4-20.8-44.6-39.7-65.9-58.6.4-.9.9-1.7 1.3-2.6 3.2.8 6.7 1 9.4 2.5 10.8 5.8 20.7 13.6 32.1 17.8 18.4 6.8 19.6 22.2 23.1 40.9M1016.1 1347.6c-22.5 4.3-79.9-23.3-88.3-50.8M555 1324.2c-4.5-4.3-9.1-8.7-13.9-13.2M1068.6 1238.4c15.9-1.2 34.7 20.3 34.8 31.8M967.6 1284.6c-12.9-7.4-25.8-14.7-38.7-22.1"/><g><path class="st3" d="M908.3 1533.7c-7.9.2-15-.4-15-.4v1.3s7.7 1.6 10.5 1.5c1.1 1.5 3.6 27.5 3.9 39.7.4 16.4-1.9 32.8-22.4 33.3-16.5.4-19.8-12.5-20.2-25.2L864 1537c2.5-.1 12.7-2.1 12.7-2.1v-1.3s-8.3 1-19.1 1.3c-7.8.2-16.1-.4-16.1-.4v1.2s8.5 1.6 10.4 1.5l1.3 49c.3 11.1 7.5 25.7 28.9 25.1 26.1-.7 29.8-17.7 29.3-35.7-.2-8 .6-37.4 2-40 2.6-.1 9.8-2 9.8-2v-1.3c-.1.2-6.6 1.2-14.9 1.4zM748.5 1518.8l-1.5-.3s-1.1 2.4-2.3 5.4c-3.7 1.1-20-2.7-31.8-5.4-12.1-2.8-28.9-7.3-30.6-8.9.2-3.2.2-5.7.2-5.7l-1.5-.3s-.8 4.8-2 10.6c-1.4 7-3.8 14-3.8 14l1.5.3s1.4-2.5 3.8-9.6c1.8-.5 6.1-.9 10.1-.9 5.9-.1 14.9 1.8 16 2.1l-15.5 67.4c-2.7-.6-11.9-1.1-11.9-1.1l-.3 1.3s11.7 1.7 18.1 3.2c7.6 1.7 17.7 5 17.7 5l.3-1.3s-9.1-3.7-11.9-4.3l15.5-67.4c3.5.8 5.3 1.4 8.4 2.6 6.1 2 14.4 6.7 15.3 7.6-.7 4.9-.7 10.3-.7 10.3l1.5.3s.8-7.4 2.6-14.3c1.4-5.9 2.8-10.6 2.8-10.6zM1020.4 1591.2c-4.4.3-7-2.4-9.9-5.4l-22-22.4c8.8-2.4 24.4-11.4 21.8-26.3-2.3-13.3-15.3-16-32.1-13.1-5.7 1-9.1 2.4-19.2 4.1-8.4 1.4-17.1 2.1-17.1 2.1l.2 1.2s8.6.3 11.4-.2l12 69.8c-2.5.4-10.6 3.4-10.6 3.4l.2 1.3s7-2.2 17.2-3.9c10-1.7 17.2-2 17.2-2l-.2-1.3s-9.4 0-11.7.4l-12-69.8c1.8-.7 3.6-.9 7.7-1.6 14.8-2.5 24.3 6.5 26 16.2 2.2 13.1-7.4 17.3-16.9 18.9-2.9.5-7-.1-7.4 1.4-.4 1.6.5 1.9 1.4 2.8l24.6 25.2c4 4 7.7 7.2 13.2 6.2 8.1-1.4 12.9-8 11.7-9-1.3-.8-3.1 2-5.5 2zM484.4 1415.8c-4.7-3.3-8.2-4.6-16.6-10.5-7-4.9-13.7-10.5-13.7-10.5l-.7 1s5.9 6.3 8.3 7.9l-40.2 58.3c-2.1-1.4-10-5-10-5l-.8 1.1s6.5 3.4 15 9.2c8.3 5.8 13.7 10.6 13.7 10.6l.8-1.1s-6.8-6.6-8.6-7.9l40.2-58.3c1.8.7 3.3 1.9 6.6 4.2 12.4 8.5 12.8 21.7 7.2 29.7-7.5 10.9-17.4 7.2-25.3 1.7-2.4-1.7-5-4.9-6.2-4.2-1.4.9-1 1.8-.9 3v35.2c.1 5.6.5 10.5 5.1 13.7 6.8 4.7 14.9 3.3 14.6 1.7-.4-1.7-3.6-1-5.3-2.5-3.4-2.8-3.3-6.6-3.3-10.8l-.1-31.4c7.9 4.5 25.4 8.9 34-3.5 7.6-10.8.2-21.9-13.8-31.6zM590.1 1469.7l-1.2-.6s-1 1-3 3.8c-3 .6-24.5-10.3-39-17.7-5.8-2.9-16-9.1-16-9.1l-.6 1.1s7.2 5.7 9.8 7l-32.2 63.1c-2.9-1.5-10.7-3.7-10.7-3.7l-.6 1.2s9 3.5 14.2 6.2c15.8 8.1 37.9 19.1 40.6 22.1-.6 3.5-.7 4.4-.7 4.4l1.3.7s2.2-6 4.1-9.6c2.2-4.3 6.1-10.6 6.1-10.6l-1.5-.8s-3.4 5-5.1 6.9c-1.5.9-11.6-1.7-18.7-4s-18-7.2-18-7.2l16.2-31.8c6 3.1 9.6 5.3 15.3 9 5.1 3.3 12 7.7 13 9.7-.4 2.7-2.4 8.4-2.4 8.4l1.5.8s2.6-6.9 4.8-11.3c1.8-3.6 6-11.1 6-11.1l-1.2-.6s-2 2.8-3.7 5.4c-1.3.6-10.1-2.2-15.7-4.4-6.6-2.4-16.7-7.7-16.7-7.7l15-29.5c1.9.9 6.9 3.5 6.9 3.5 9.2 4.7 22 14.1 23 17.7-.4 2.5-2.6 8.1-2.6 8.1l1.5.8s2.8-6.9 5-11.2c1.8-3.6 5.3-9 5.3-9zM653.9 1503.8c-1.6-1.1-8.1-7.4-18-11-12.6-4.6-27.6-1.1-32.4 12.2-6.7 18.3 6 25.8 15.8 30.3 9.4 4.3 20 11.7 16.5 21.5-2.9 7.9-11.5 8.9-21.2 5.4-10.9-4-20.7-17.1-21.1-21.8 1.5-7.8 1.5-9.3 1.5-9.3l-1.3-.5s-2.1 9-4 14.6c-2.3 6.6-7.5 16.9-7.5 16.9l1.4.5s2.2-3.4 4.9-8.6c1.9 2.3 9.1 8.9 18.3 12.2 11.6 4.2 28.2 4 34.7-13.8 4.5-12.2.2-22.7-17.2-30.4-11.6-5.1-19.5-10.7-16.1-20.1 3-8.1 13-8.2 21.8-4.9 10.9 4 17.3 14 19.2 17.4-.9 4.2-1.4 8.6-1.4 8.6l1.5.5s1.8-7.2 4.4-13.8c2.1-5.5 6.7-12.9 6.7-12.9l-1.5-.5c-.1 0-2.3 2.4-5 7.5zM798.4 1538.9c-.7-2.6-1-4.8-1.2-6.1-.3-2.3.1-4.6-1.1-4.7-1.3-.1-1.4 6.1-20.8 38.5-9.5 15.9-17.8 29.3-20.5 33.6-2.5-.3-11.1.4-11.1.4l-.1 1.3s3.8-.5 16.1.8c10.1 1.1 16.2 2.7 16.2 2.7l.1-1.3s-10.4-2.7-12.9-2.9l8.5-20.8 26.4 2.8 5.4 22.3c-3.2-.3-12.5.3-12.5.3l-.1 1.3s7.4-.2 19.6 1.1c10.2 1.1 17.2 2.8 17.2 2.8l.1-1.3s-8.6-2.6-11.1-2.9l-18.2-67.9zm-25.9 39s2.6-5.5 4.2-8.6c4.1-8.3 11.8-21.1 11.8-21.1l8.4 32.3-24.4-2.6zM1291.6 1472.4l-39.3-56.9c2.9-2 4.7-3 7.6-4.5 5.6-3.1 14.7-6.1 15.9-6.2 3.1 3.8 7.2 7.5 7.2 7.5l1.3-.9s-4.9-5.6-8.8-11.6c-3.2-4.9-5.8-9.1-5.8-9.1l-1.3.9s1.1 2.4 2.4 5.3c-1.7 3.4-15.5 13-25.4 19.9-10.2 7.1-24.9 16.5-27.2 16.6-2.2-2.3-4.1-4-4.1-4l-1.3.9s3 3.9 6.5 8.6c4.2 5.7 7.7 12.3 7.7 12.3l1.3-.9s-.9-2.7-4.5-9.3c.8-1.7 3.5-5.1 6.1-8 3.9-4.5 11.4-9.8 12.3-10.4l39.3 56.9c-2.3 1.6-8.9 8.1-8.9 8.1l.8 1.1s9.2-7.5 14.6-11.2c6.4-4.5 15.6-9.7 15.6-9.7l-.8-1.1c0-.2-8.8 4.1-11.2 5.7z"/><circle class="st3" cx="864" cy="864" r="643.7"/><path class="st3" d="M1208 1486c-5.8-13.3-13.4-30.7-13.4-34.9 2.1-1 7.2-5.7 7.2-5.7l-.6-1.1s-5.6 3.7-12 7c-7.6 3.8-14.7 6.4-14.7 6.4l.6 1.1s7.2-1.5 10.5-3.2c1.2 1.4 8.7 12.9 13.1 20.6 5.8 10 8.8 16 13.6 26.4-11.4-5.3-18.2-8.2-29.6-13.4-14.5-6.5-36.6-16.3-37.4-16.4-1.8-.4-4.9 2.7-9.1 4.7-4.4 2.1-9.2 3.9-9.2 3.9l.7 1.3s3.9-.3 7.6.2c4.8.6 7.4 2 10.5 3.7 5.1 10 7.3 15.3 12.2 26.1 5 10.7 11.9 27.1 11.8 29.9-2.8 1.4-9.2 6.4-9.2 6.4l.7 1.3s4.6-3.5 13.3-7.8c8.3-4.2 15.5-6.6 15.5-6.6l-.7-1.3s-8.5 2.5-10.8 3.6c-2.4-.7-11.2-16.1-16.6-26-5-9.2-7.9-14.4-12.1-24 0 0 22.5 10.2 36.6 16.4 14.4 6.4 36.4 16.9 37.7 16.3.9-.5.3-2.6-1.7-6.4-2.9-5.6-8.5-14.9-14.5-28.5zM1121 1562.5l-43.9-54.6c-1.7-2.1-2.8-4-3.6-5.1-1.2-2-1.8-4.2-2.9-3.9-1.3.4 1.2 6.2-3.5 43.6-2.3 18.4-4.4 34-5.2 39-2.4.8-9.9 4.8-9.9 4.8l.4 1.3s3.3-2 15-5.8c9.6-3.1 15.9-4.1 15.9-4.1l-.4-1.3s-10.6 1.8-13 2.5l-.7-22.5 25.2-8.1 14 18.2c-3.1 1-11.3 5.3-11.3 5.3l.4 1.3s6.7-3.1 18.4-6.9c9.7-3.1 16.9-4.4 16.9-4.4l-.4-1.3c0 .1-9 1.2-11.4 2zm-51.7-8.5s.1-6.1.3-9.5c.4-9.2 2.2-24.1 2.2-24.1l20.8 26.1-23.3 7.5z"/><path d="M864 87.7C435.2 87.7 87.7 435.2 87.7 864c0 428.7 347.6 776.3 776.3 776.3 428.8 0 776.3-347.6 776.3-776.3 0-428.8-347.5-776.3-776.3-776.3zM464.2 1451.2l.1 31.4c0 4.2 0 8 3.3 10.8 1.7 1.6 5 .9 5.3 2.5.2 1.5-7.9 2.9-14.6-1.7-4.6-3.2-5.1-8.1-5.1-13.7v-35.2c0-1.3-.5-2.1.9-3 1.3-.8 3.8 2.5 6.2 4.2 7.9 5.5 17.7 9.2 25.3-1.7 5.6-8.1 5.1-21.2-7.2-29.7-3.3-2.3-4.8-3.5-6.6-4.2l-40.2 58.3c1.9 1.3 8.6 7.9 8.6 7.9l-.8 1.1s-5.4-4.9-13.7-10.6c-8.5-5.9-15-9.2-15-9.2l.8-1.1s7.9 3.6 10 5l40.2-58.3c-2.3-1.6-8.3-7.9-8.3-7.9l.7-1s6.7 5.6 13.7 10.5c8.4 5.8 11.9 7.2 16.6 10.5 14 9.7 21.4 20.8 13.8 31.8-8.6 12.2-26.1 7.8-34 3.3zm114.1 37.9s2.2-5.7 2.6-8.1c-1.1-3.6-13.8-13-23-17.7 0 0-5-2.6-6.9-3.5l-15 29.5s10.1 5.3 16.7 7.7c5.6 2.1 14.4 5 15.7 4.4 1.7-2.6 3.7-5.4 3.7-5.4l1.2.6s-4.2 7.5-6 11.1c-2.2 4.4-4.8 11.3-4.8 11.3l-1.5-.8s2-5.7 2.4-8.4c-1-1.9-7.9-6.4-13-9.7-5.8-3.6-9.3-5.9-15.3-9l-16.2 31.8s10.9 4.8 18 7.2c7 2.3 17.2 4.9 18.7 4 1.8-1.9 5.1-6.9 5.1-6.9l1.5.8s-3.9 6.3-6.1 10.6c-1.8 3.6-4.1 9.6-4.1 9.6l-1.3-.7s.1-.9.7-4.4c-2.7-3-24.8-14-40.6-22.1-5.2-2.7-14.2-6.2-14.2-6.2l.6-1.2s7.9 2.3 10.7 3.7l32.2-63.1c-2.6-1.3-9.8-7-9.8-7l.6-1.1s10.2 6.1 16 9.1c14.5 7.4 36 18.2 39 17.7 2-2.7 3-3.8 3-3.8l1.2.6s-3.4 5.4-5.3 9c-2.2 4.3-5 11.2-5 11.2l-1.5-.8zm75.3 20.7c-2.6 6.6-4.4 13.8-4.4 13.8l-1.5-.5s.5-4.4 1.4-8.6c-1.9-3.5-8.3-13.5-19.2-17.4-8.8-3.2-18.8-3.2-21.8 4.9-3.4 9.4 4.5 15 16.1 20.1 17.4 7.7 21.7 18.1 17.2 30.4-6.5 17.7-23.1 18-34.7 13.8-9.2-3.4-16.4-10-18.3-12.2-2.7 5.2-4.9 8.6-4.9 8.6l-1.4-.5s5.2-10.3 7.5-16.9c1.9-5.6 4-14.6 4-14.6l1.3.5s0 1.6-1.5 9.3c.4 4.7 10.3 17.8 21.1 21.8 9.7 3.5 18.3 2.6 21.2-5.4 3.6-9.8-7-17.2-16.5-21.5-9.8-4.5-22.5-12-15.8-30.3 4.8-13.2 19.8-16.8 32.4-12.2 9.9 3.6 16.4 9.9 18 11 2.7-5 4.9-7.4 4.9-7.4l1.5.5c.1-.1-4.5 7.3-6.6 12.8zm87.9 33.3s0-5.5.7-10.3c-.9-.8-9.2-5.5-15.3-7.6-3.1-1.1-4.9-1.8-8.4-2.6L703 1590c2.7.6 11.9 4.3 11.9 4.3l-.3 1.3s-10.1-3.3-17.7-5c-6.4-1.5-18.1-3.2-18.1-3.2l.3-1.3s9.2.5 11.9 1.1l15.5-67.4c-1.1-.3-10.1-2.2-16-2.1-4 .1-8.2.4-10.1.9-2.4 7.2-3.8 9.6-3.8 9.6l-1.5-.3s2.5-7 3.8-14c1.2-5.7 2-10.6 2-10.6l1.5.3s-.1 2.6-.2 5.7c1.7 1.7 18.5 6.2 30.6 8.9 11.8 2.7 28.2 6.5 31.8 5.4 1.2-2.9 2.3-5.4 2.3-5.4l1.5.3s-1.4 4.7-2.8 10.4c-1.8 6.9-2.6 14.3-2.6 14.3l-1.5-.1zm85.9 67.7s-7.1-1.7-17.2-2.8c-12.2-1.3-19.6-1.1-19.6-1.1l.1-1.3s9.3-.6 12.5-.3l-5.4-22.3-26.4-2.8-8.4 20.8c2.5.3 12.9 2.9 12.9 2.9l-.1 1.3s-6.1-1.6-16.2-2.7c-12.2-1.3-16.1-.8-16.1-.8l.1-1.3s8.6-.7 11.1-.4c2.8-4.3 11-17.7 20.5-33.6 19.5-32.4 19.5-38.6 20.8-38.5 1.1.1.8 2.4 1.1 4.7.3 1.3.6 3.5 1.2 6.1l18 67.7c2.5.3 11.1 2.9 11.1 2.9v1.5zm86-75.1c-1.4 2.6-2.2 32-2 40 .5 18-3.3 35-29.3 35.7-21.4.5-28.6-14.1-28.9-25.1l-1.3-49c-1.9 0-10.4-1.5-10.4-1.5v-1.2s8.3.6 16.1.4c10.7-.3 19.1-1.3 19.1-1.3v1.3s-10.2 2-12.7 2.1l1.2 46.8c.3 12.6 3.7 25.6 20.2 25.2 20.5-.5 22.8-17 22.4-33.3-.3-12.2-2.9-38.1-3.9-39.7-2.8.1-10.5-1.5-10.5-1.5v-1.3s7.1.7 15 .4c8.2-.2 14.8-1.2 14.8-1.2v1.3c-.1-.1-7.2 1.9-9.8 1.9zm101 62.6c-5.6 1-9.3-2.2-13.2-6.2l-24.6-25.2c-.9-.9-1.8-1.2-1.4-2.8.4-1.4 4.5-.9 7.4-1.4 9.5-1.6 19.1-5.8 16.9-18.9-1.7-9.7-11.1-18.7-26-16.2-4 .7-5.9.9-7.7 1.6l12 69.8c2.3-.4 11.7-.4 11.7-.4l.2 1.3s-7.3.3-17.2 2c-10.2 1.7-17.2 3.9-17.2 3.9l-.2-1.3s8.2-3 10.6-3.4l-12-69.8c-2.8.5-11.4.2-11.4.2l-.2-1.2s8.7-.6 17.1-2.1c10.1-1.7 13.5-3.2 19.2-4.1 16.8-2.9 29.8-.1 32.1 13.1 2.6 14.9-13 23.9-21.8 26.3l22 22.4c2.9 3 5.5 5.7 9.9 5.4 2.3-.1 4.2-2.8 5.6-1.9 1.1.9-3.7 7.5-11.8 8.9zm101.5-31.9c-11.7 3.8-18.4 6.9-18.4 6.9l-.4-1.3s8.3-4.3 11.3-5.3l-14-18.2-25.2 8.1.7 22.5c2.4-.8 13-2.5 13-2.5l.4 1.3s-6.2 1-15.9 4.1c-11.7 3.8-15 5.8-15 5.8l-.4-1.3s7.6-4.1 9.9-4.8c.8-5.1 2.9-20.7 5.2-39 4.7-37.5 2.2-43.2 3.5-43.6 1.1-.4 1.7 1.9 2.9 3.9.8 1.1 1.9 3 3.6 5.1l43.9 54.6c2.4-.8 11.3-1.9 11.3-1.9l.4 1.3c.1-.2-7.1 1.1-16.8 4.3zm108.2-45.5c-1.2.6-23.2-9.8-37.7-16.3-14.1-6.2-36.6-16.4-36.6-16.4 4.3 9.7 7.2 14.8 12.1 24 5.4 9.9 14.2 25.3 16.6 26 2.2-1.1 10.8-3.6 10.8-3.6l.7 1.3s-7.2 2.4-15.5 6.6c-8.8 4.4-13.3 7.8-13.3 7.8l-.7-1.3s6.4-5 9.2-6.4c.1-2.8-6.8-19.2-11.8-29.9-5-10.8-7.1-16-12.2-26.1-3.1-1.7-5.7-3.1-10.5-3.7-3.6-.5-7.6-.2-7.6-.2l-.7-1.3s4.8-1.8 9.2-3.9c4.2-2 7.3-5 9.1-4.7.7.1 22.9 9.9 37.4 16.4 11.3 5.2 18.2 8.2 29.6 13.4-4.8-10.4-7.8-16.4-13.6-26.4-4.4-7.7-12-19.2-13.1-20.6-3.4 1.7-10.5 3.2-10.5 3.2l-.6-1.1s7.1-2.6 14.7-6.4c6.4-3.2 12-7 12-7l.6 1.1s-5.1 4.7-7.2 5.7c0 4.2 7.6 21.6 13.4 34.9 6 13.6 11.6 22.9 14.4 28.5 2.1 3.8 2.7 5.9 1.8 6.4zm63.9-43.6c-5.4 3.7-14.6 11.2-14.6 11.2l-.8-1.1s6.6-6.4 8.9-8.1l-39.3-56.9c-.9.7-8.4 6-12.3 10.4-2.6 3-5.3 6.3-6.1 8 3.7 6.6 4.5 9.3 4.5 9.3l-1.3.9s-3.5-6.6-7.7-12.3c-3.4-4.7-6.5-8.6-6.5-8.6l1.3-.9s1.9 1.8 4.1 4c2.3-.1 17-9.5 27.2-16.6 10-6.9 23.8-16.4 25.4-19.9-1.4-2.9-2.4-5.3-2.4-5.3l1.3-.9s2.5 4.2 5.8 9.1c3.9 6 8.8 11.6 8.8 11.6l-1.3.9s-4.1-3.7-7.2-7.5c-1.2.1-10.3 3.1-15.9 6.2-2.9 1.5-4.6 2.5-7.6 4.5l39.3 56.9c2.3-1.6 11.2-5.8 11.2-5.8l.8 1.1c0 .1-9.2 5.4-15.6 9.8zm-424 30.4c-355.5 0-643.7-288.2-643.7-643.7S508.5 220.3 864 220.3s643.7 288.2 643.7 643.7-288.2 643.7-643.7 643.7z"/><path d="M1069.7 1544.5c-.2 3.5-.3 9.5-.3 9.5l23.3-7.5-20.8-26.1c0 .1-1.8 14.9-2.2 24.1zM776.7 1569.3c-1.6 3.1-4.2 8.6-4.2 8.6l24.4 2.6-8.4-32.3s-7.7 12.9-11.8 21.1z"/></g><g><path class="st4" d="M476.3 1304.6l-3.5-3.1c-61.1-54.6-109.3-119.9-143.2-194-35.1-76.8-52.9-158.9-52.9-244 0-79.3 15.5-156.2 46.2-228.6 29.6-69.9 71.9-132.7 125.9-186.7 53.9-53.9 116.7-96.3 186.7-125.9 72.4-30.6 149.3-46.2 228.6-46.2s156.2 15.5 228.6 46.2c69.9 29.6 132.7 71.9 186.7 125.9 53.9 53.9 96.3 116.7 125.9 186.7 30.6 72.4 46.2 149.3 46.2 228.6 0 83.9-17.3 164.9-51.5 240.8-33 73.3-80 138.1-139.5 192.6-1.3 1.2-3 1.8-4.7 1.8-1.6 0-3.8 0-40.8-12.9-18.9-6.6-39.3-13.9-46.4-16.6-31.6-11.9-54-24.3-68.5-37.6-3.3-3.1-6.1-6.5-8.7-9.9-3.6-4.6-7.1-8.9-11.5-11.6-3.6-2.2-5.8-2.5-7.2-2.5-2.3 0-4.9.9-8.2 2-2.1.7-4.5 1.6-7.3 2.3-4.1 1.1-8.3 1.6-12.6 1.6-7.7 0-15.5-1.7-25.2-5.6-6.3-2.5-10.7-5.9-14.7-8.9-4.4-3.4-8-6-13.2-7.1-1.8-.4-3.7-.6-5.5-.6-14.8 0-29.6 12.1-42.6 22.7-4 3.3-7.8 6.4-11.5 9-4 2.9-7.6 5.9-11.1 8.7-11.9 9.7-23.2 18.9-39.9 18.9-5.7 0-11.5-1-17.9-3.2-5.4-1.8-10.4-4.8-15.2-7.7-4.8-2.8-9.3-5.5-13.8-6.9-4.1-1.2-7.9-2.2-11.6-3.2-8.8-2.3-17.2-4.5-27.2-9.5-2.4-1.2-4.9-2.7-7.3-4.1-5.9-3.6-12.1-7.3-18.1-7.3-1.3 0-2.6.2-3.8.5-3.7 1-6.2 3-9.1 5.3-3.9 3.1-8.7 6.9-16.4 6.9-2.3 0-4.7-.3-7.4-1-11.8-3.2-23.1-11.1-34.1-18.9-7.3-5.1-14.8-10.4-22-13.9-2.8-1.3-5.4-2.8-8-4.2-7.2-3.9-13.3-7.3-20.1-7.3-1.6 0-3.1.2-4.7.5-10.8 3.5-92.6 69.2-127.5 97.4-27.3 21.9-33.9 27.2-35.8 28.2l-4.6 2.4zM864 289.7c-77.5 0-152.6 15.2-223.3 45.1-68.3 28.9-129.7 70.3-182.4 123s-94.1 114.1-123 182.4c-29.9 70.7-45.1 145.9-45.1 223.3 0 83.1 17.4 163.3 51.7 238.4 32.4 70.8 78.1 133.3 135.8 185.9 6-4.7 17.8-14.1 30-24 91.6-73.6 123.9-97.9 132.9-100 2.6-.6 5.2-.9 7.8-.9 10.3 0 18.6 4.5 26.6 8.9 2.4 1.3 4.9 2.7 7.4 3.9 8.1 3.9 16.1 9.5 23.9 15 10 7 20.4 14.3 29.8 16.9 1.5.4 2.8.6 3.9.6 2.8 0 4.5-1.2 7.9-4 3.3-2.7 7.5-6 13.9-7.7 2.4-.7 4.9-1 7.4-1 9.7 0 17.9 4.9 25 9.2 2.3 1.4 4.4 2.7 6.4 3.7 8.7 4.4 16 6.3 24.5 8.5 3.8 1 7.8 2 12.1 3.3 6.1 1.8 11.5 5.1 16.8 8.2 4.4 2.6 8.6 5.1 12.6 6.4 5 1.7 9.5 2.5 13.7 2.5 11.9 0 20.5-7 31.4-15.8 3.7-3 7.5-6.1 11.7-9.2 3.4-2.5 7-5.4 10.9-8.6 14-11.5 31.5-25.8 51.1-25.8 2.8 0 5.6.3 8.3.9 8.2 1.7 13.7 5.9 18.6 9.5 3.6 2.7 7 5.3 11.6 7.1 8 3.2 14.2 4.6 20.2 4.6 3.1 0 6.1-.4 9.1-1.2 2.3-.6 4.4-1.3 6.4-2 4.1-1.4 8-2.8 12.6-2.8 4.7 0 9.3 1.4 14.3 4.5 6.5 4 11 9.7 15 14.8 2.4 3.1 4.8 6 7.3 8.4 13 12 34.6 23.8 64.1 34.9 14.8 5.6 67.6 24.2 80.7 28 57-52.8 102-115.3 133.8-185.9 33.4-74.1 50.3-153.3 50.3-235.3 0-77.5-15.2-152.6-45.1-223.3-28.9-68.3-70.3-129.7-123-182.4s-114.1-94.1-182.4-123c-70.6-29.9-145.7-45-223.2-45z"/></g><g><path class="st4" d="M574.2 987.7l-20.6 14.6c.4.5.8 1.3 1 2.5l19.5-13.5.1-3.6zM626.5 950.7l-.1 4.4c18.5-12.8 36.9-25.5 54.7-37.9-1.2-.9-2.3-1.9-3.4-2.9l-51.2 36.4zM446.7 1078.1l1.4.4s.1 0 .1-.1l.8-2-2.3 1.7zM712.7 889.5c.4 1.9.8 3.5 1.2 5 5.2-3.6 10.3-7.1 15.2-10.6-.2-1.9-.6-3.7-1.2-5.2l-15.2 10.8zM505.9 1036.1l-16.6 11.7v2.1c5.4-3.7 10.9-7.6 16.5-11.4l.1-2.4zM1332.2 1101.6c-1.9-3.7-4.4-7.4-9.1-8.3-4.9-.9-9.9-1.8-14.8-2.8-9-1.9-8.9-1.9-9.3-11.1v-.8c-1.6-36.2-3.3-72.4-4.9-108.7-1.7-37.9-3-75.9-5.2-113.7-1.2-20.8-9.5-37.6-30.9-45-.9-.3-2-1.5-2.1-2.3-.4-4.1-.5-8.2-.7-12.3.3.2.7.5 1.1.7 1.4-1.2 2.9-2.5 4.4-3.7-1.2-1.3-2.4-2.6-3.5-3.9-1-1.2-2.2-2.4-2.6-3.7-1.1-4.9.3-9.2 2.6-13.7 5.4-10.7 10.3-21.7 15.4-32.7 3.4-7.4 7.5-14.6 10-22.3 6.1-18.3 5.2-37-.1-55.2-6.9-23.7-14.9-47.1-22.5-70.7-4-12.4-8.2-24.8-12.3-37.3-1.6-4.9-1.2-5.6 3.7-7.1 2.8-.8 3.3-2.4 1.8-5-.8-1.3-1.3-2.8-1.5-4.2-.4-3.1-1.7-5.2-4.8-6.3-7.1-2.6-14-5.3-21-8.1-2.2-.9-4.3-2.1-6.9-3.4 1.4-1.2 2.2-2 3.1-2.7 10.3-8 20.6-16 31-24.1l34.2-35.2c-9.5 7.4-18.8 15-28.4 22.2-6.5 4.9-13.1 9.7-20.2 13.7-7.9 4.4-16.5 7.4-24.6 11.4-12.4 6.2-23.1 14.5-32.5 24.8-12.6 13.8-23.7 29-39.4 39.9-12.2 8.4-23.6 18-35.5 26.9-13.5 10.2-27.1 20.3-40.5 30.5-13.9 10.6-27.6 21.3-41.4 31.9-9.8 7.5-19.7 15-29.5 22.5-8 6.2-15.9 12.6-24 18.8-7.1 5.4-14.5 10.5-21.6 15.9-8.9 6.6-17.6 13.4-26.4 20.1-14.2 10.8-28.4 21.5-42.6 32.2-6.5 4.9-13.1 9.9-19.6 14.8l-.4 5.2.4 1.3-3.6.9H851c-.9.7-1.8 1.4-2.8 2.1l-.3 8.3c4.1-2.9 6.4-4.5 6.6-4.6 24.4-18.4 48.8-36.8 73.1-55.2 5.4-4.1 10.6-8.7 16-12.8 5.8-4.4 12-8.4 17.8-12.8 6.2-4.7 12.1-9.9 18.4-14.6 5.9-4.4 12.1-8.4 17.9-12.9 25.9-19.6 51.7-39.3 77.6-59 23.1-17.6 46.1-35.2 69.1-52.8 9.4-7.2 18.5-14.6 28.1-21.4 9.5-6.7 17.1-16.1 28.8-19.5 1.8-.5 4.1-.9 5.7-.2 5.7 2.3 1.7 5 7.2 7.7 1.4.7 12.5 1.9 13.1 3.2 2.1 5 4 10.1 5.7 15.2 6.7 20.4 13.4 40.8 19.8 61.4 5.5 17.7 11.4 35.3 15.5 53.3 4 17.6 1.9 35.1-7.8 51-7.5 12.2-14.8 24.6-22.4 36.8-.6 1-2.5 1.7-3.8 1.6-9.3-.8-18.6-1.5-27.8-2.8-11.2-1.6-22.9-.7-33.6-5.6-.7-.3-1.7.1-2.6.2-2.5.3-4.9.9-7.4.8-4.2-.1-8.4-.6-12.6-1-.3 2-.4 3.5-.6 4.8-2.6-.1-4.9-.2-7.6-.4V772c-1.7-.4-3-.7-4.2-.9-11.7-2.2-21.2 1.7-25.4 12-3 7.4-4.7 15.5-6.1 23.4-.9 5.2-.1 10.6 0 15.9 0 1.2.6 2.4 1 3.6.6 1.6 1.7 3.1 1.8 4.7.4 12.7.7 25.4.9 38.1.1 6.6 0 13.1 0 20.1-1.9-.5-3.6-1-5.1-1.4-5.6-1.6-11.1-3.6-16.8-4.9-10.3-2.3-18.7 1.7-23.8 11-5.7 10.7-6 22.2-4.4 33.8 2.7 18.4 6.1 36.8 9.3 55.1 1.3 7.4.2 14.3-3.7 20.8-4.1 6.9-1.8 17.5 5 20.7 2.7 1.3 6.3.7 9.9 1 0 .1.3.9.5 1.8 3.5 16.3 6.8 32.7 10.4 49 1.6 7.3 5.6 13 12.6 16.3 1.2.6 2.2 2 2.8 3.3 3 6.5 6.5 8.6 13.5 7.7 2.1-.3 4.4-.2 6.5.2 14.6 2.8 29.2 5.7 43.8 8.7 1.3.3 2.7 1 3.6 2 4.2 4.7 9.6 4.1 14.9 3.8 2-.1 4.1-.7 6-.3 10.5 2.5 20.5 5.2 30.9 8.1 6.1 1.7 12.2 3.9 18.2 5.8 2 .6 4.3.5 6.4.5 1.3 0 2.6-.7 3.8-.5 5.4.9 10.7 1.7 16 3 4.4 1.1 7.6-.3 10.9-3.2 10.7-9.5 21.5-18.8 32.4-27.9 1.3-1.1 3.7-1.5 5.5-1.3 3.3.4 6.6 1.5 9.8 2.3 2.7 1.1 4.2-.7 3.2-2.7zm-211.4-315.5c2.1-5.9 7.6-8.6 13.5-6.6 8.2 2.7 16.2 6.1 24.3 8.9 10.3 3.6 20.7 6.8 30.9 10.3 1.2.4 2 2 3.1 3 .8.7 1.5 1.6 2.5 2 2.5 1 5.1 1.7 8.2 2.8-2 4.5-3.7 8.6-5.6 12.6-11.4 23.7-26.9 44.2-47.3 60.8-.8.6-1.7 1.2-2.4 1.9-7.8 7.5-17.4 8.7-28.9 7.4 0-8.3.1-16.7 0-25.1-.3-21.2-1-42.5-1.1-63.7 0-4.8 1.2-9.8 2.8-14.3zm-39 209.8c-2.8-2.5-4.1-5-4.7-8.8-2.3-14.7-5.6-29.2-7.7-44-1.5-10.8-2.1-21.9-2.4-32.8-.1-4.2 1.6-8.6 3.3-12.7 2.7-6.5 8.6-9.6 15.5-7.9 7.6 1.9 15.1 4.6 22.7 6.8 2.7.8 2.3 2.8 2.3 4.7.6 24.1 1.1 48.1 1.7 72.2.3 12.3.7 24.6 1 36.9v3.6c-3.6 1-7.4-4.2-10.8 1-2.4-.2-4.4-.6-5.3-4-.4-1.3-3.4-2.4-5.3-2.8-2.8-.5-3.8-1.8-4.7-4.5-1-2.9-3.3-5.6-5.6-7.7zm4.4 31.6c-.5-2.4-1.2-4.8-1.2-7.2 0-1.4 1.4-2.7 2.1-4.1 1 1.1 2.5 2 2.8 3.3 1.5 6.7 2.5 13.5 4.2 20.1 1 3.9-.6 5.1-4.4 5.7-1.2-5.9-2.4-11.8-3.5-17.8zm10.3 48.5c-1.7-7-3.1-14.1-4.9-21.1-1-3.7.4-5.2 4.3-5.8 2.5 12.2 5 24.2 7.6 37-4.2-2.8-6-6.2-7-10.1zm6.7-37.5c-1.3-6.2-2.5-12.3-3.8-18.8 4.1 0 6.1 1.3 6.4 5.1.2 2.7.8 5.4 1.6 7.9 1.3 3.9-.5 5.2-4.2 5.8zm1.6 8.3c-.8-3.4 1.8-3.6 4.4-5 3.3 16.5 6.4 32.4 9.7 48.5-3 .6-4.6-.2-5.2-3.1-3-13.4-5.9-26.9-8.9-40.4zm7.8 48.3c2.9.7 5.4 1.4 8.3 2.1-4.4 2.6-5.9 2.2-8.3-2.1zm11.5-51.6l7.4 33.6c-7.4-10.1-8.1-21.7-7.4-33.6zm18.7 41.5c-4.3-18.9-8.7-37.8-13.1-57 3.8-.4 5.5.8 6.3 4.3 3.3 16.1 6.7 32.1 10.3 48.2.5 2.8 0 4.3-3.5 4.5zm12.8-6.4c-3.4-15.5-6.8-30.9-10.2-46.5 3.5-.4 5.2.7 5.8 4.1 2.5 12.5 5.2 25 8 37.5.7 3 0 4.4-3.6 4.9zm12.6-6.4c-2.7-12-5.4-24-8.2-36.2 3.6-.4 5 .5 5.6 3.7 1.8 9.3 3.9 18.5 6.2 27.6.7 3.1-.1 4.4-3.6 4.9zm9.3 22.6c-2.5 0-4.8.2-4.8-3.7 2.5.5 5.1-.1 4.8 3.7zm3-28.9c-2-8.6-4-17.2-6.1-26.2 3.9-.4 5.3 1 5.9 4.2 1 5.7 2.3 11.3 3.9 16.9 1 3.2 0 4.5-3.7 5.1zm4.7 16.9c1.7.8 3.5 1.7 5.2 2.5-.3.6-.5 1.1-.8 1.7-1.8-.8-3.6-1.5-5.4-2.3.4-.6.7-1.2 1-1.9zm6.9 15.9c-1.7-.8-3.4-1.6-5.2-2.5.4-.7.8-1.3 1.1-2l5 2.7c-.2.6-.6 1.2-.9 1.8zm1-38.5c-1.1-5.6-2.5-11.2-3.9-17 3.4-.2 5 .8 5.6 3.8 1.1 5.6 2.5 11.2 3.8 17-3.4.3-4.9-.7-5.5-3.8zm7.8-22.1c-.8-1.7-4.5-2.2-7-2.8-.5-.1-1.5 1.5-2.7 2.8-1.7.1-3.6-.4-4.2-3.4-.4-2-6.4-4.5-8.2-3.4-.8.5-1 1.8-1.6 3-2.1.2-3.5-.4-5-3-1.1-1.9-4.5-2.6-7-3.4-.6-.2-1.9 1.6-3.3 3-1.8.1-2.6-1.7-4.1-3.7-1.6-2.3-5.1-3.2-8.6-5.1-.3 2.5-.4 3.7-.5 5.1-2.6-.3-4.5-.6-5.5-3.8-1.3-4.4-5.8-3-9.3-4.2-.2 1.6-.4 2.7-.7 4.7-2-1.2-4.3-1.9-5-3.3-1-2.3-1.3-4.6-4.4-5.2-.6-.1-1.2-2.1-1.3-3.2l-1.8-74.2-.6-33v-4c12.3 3.6 24.1 7.2 36 10.5 10.8 3 19.4 9.4 27.2 17.3 9.3 9.4 14.9 20.8 20 32.7 8.7 20.4 12.9 42.2 18.7 63.5 1.1 4.1 2.3 8.2 3.3 12.4.3 1.1.2 2.2.3 3.6h-4.7v4.3c-3-.1-5.3-.4-6-3.8-.9-4.3-4.6-3-7.7-4.1v4.5c-2.8-.2-4.7-.6-6.3-3.8zm6.1 24c-.8-5.1-2.3-10-3.6-15.3 3.8-.2 6.1.6 6.9 4.6 1 5.3 2.5 10.5 3.9 15.9-4.7.5-6.5-1.2-7.2-5.2zm4.1 16c2.7.5 5.7-.5 6.7 3.9-3.1-.6-6 .1-6.7-3.9zm8.5 16.4c-1.9-.9-3.9-1.8-5.8-2.8l.6-1.2c2.4.1 5.1-.4 6.2 2.3-.4.6-.7 1.1-1 1.7zm2.4-27.4c-1.2-5.6-2.8-11.1-4.4-17 3.4 0 5.3.8 5.9 4.3 1 5.3 2.4 10.5 3.7 16-2.9.2-4.6-.3-5.2-3.3zm16.5 1.3c-.1-1-.4-2-.6-3.2 6-4.1 10.4-9.1 9.3-16.5-.5-3.2-2.5-6.3-4.4-9-1.3-2-3.5-3.5-5.6-4.8-4.9-3.1-7.4-7.6-8.8-13.1-3.2-12.4-6.5-24.8-9.8-37.2-3.8-14-9.4-27.3-16.3-40.1-6.4-11.9-14.3-22.6-25.3-30.8-8.4-6.3-18.5-8.6-28.2-11.6-3.4-1.1-6.8-2.3-11.3-3.8 5.4-4 10-7.3 14.6-10.8 16.8-12.7 30.9-28.1 41.4-46.3 5.7-10 10.5-20.5 15.6-30.8 1.6-3.2 3.6-4.3 7.1-3.2 10.4 3.5 20.9 7 31.3 10.4 2.6.8 5.3 1.1 7.9 1.8 9.5 2.4 16.1 8.7 19.6 17.5 2.6 6.5 3.6 13.7 5.2 20.6.1.5.3 1.2 0 1.5-4.6 6.9-.7 14.2-1.4 21.3 6 11.9 3.2 24.8 3.9 37.1 2.2 36.1 3.6 72.2 5.3 108.3.7 16.2 1.3 32.4 2.1 48.5.1 3-.8 4.1-3.8 4.5-4.9.5-9.7 1.5-14.6 2.2-1.4.2-2.8-.1-4.2-.4-7.6-1.8-15-4-22.7-5.4-4.1-.8-5.9-2.8-6.3-6.7zm10.7 41.1c8.2 1.9 15.7 3.7 24.2 5.7-4.5 2.3-21.7-1.7-24.2-5.7zm31.9 0c-10.3-2.4-20.6-5-30.9-7.6-1.5-.4-2.7-1.6-4.1-2.5.2-.5.5-1 .7-1.5l40.1 9.6c0 .5.1 1 .1 1.5-1.9.1-4 .9-5.9.5zm-3.6-12.7c-.1-.4-.2-.8-.4-1.1 1-.4 2-1.3 3-1.2 6.4.6 9.5 2.1 10.2 5.3-4.4-1-8.6-2-12.8-3zM798.1 829L767 851.1c.7 1.2 1.4 3 2.2 5.2 10.5-7.3 20.3-14.1 29.3-20.3v-.6l-.4-6.4zM357 1141.7c-.3.2-.5.4-.5.4l.5-.4zM439.1 1083.4l-82.2 58.2c4.5-3.2 36.4-25.3 82.1-56.9l.1-1.3zM840.2 800.8v-.9l-.7-.2-.4.3.2.8z"/></g></svg>